<?xml version="1.0" encoding="utf-8"?>
<!-- Generator: Adobe Illustrator 27.5.0, SVG Export Plug-In . SVG Version: 6.00 Build 0)  -->
<svg version="1.1" xmlns="http://www.w3.org/2000/svg" xmlns:xlink="http://www.w3.org/1999/xlink"
	x="0px" y="0px"
	viewBox="0 0 3710 3710" style="enable-background:new 0 0 3710 3710;" xml:space="preserve">
 
<g id="Illustration">
	<g>
		
			<linearGradient id="SVGID_1_" gradientUnits="userSpaceOnUse" x1="-3081.9644" y1="3538.9883" x2="-5109.1934" y2="1350.8682" gradientTransform="matrix(-1 0 0 1 -2776.7466 0)">
			<stop  offset="0" style="stop-color:#DAE3FE"/>
			<stop  offset="1" style="stop-color:#E9EFFD"/>
		</linearGradient>
		<path style="fill:url(#SVGID_1_);" d="M571.618,2286.161c282.208,643.617,1027.144,920.066,1610.813,872.931
			c159.365-12.87,480.012-38.764,730.376-269.779c480.806-443.648,406.758-1370.997-53.512-1916.969
			c-59.273-70.31-469.554-541.378-1108.899-535.073c-468.094,4.617-796.644,262.619-836.595,294.761
			c-50.468,40.604-161.781,137.093-262.1,290.165C415.987,1381.866,395.267,1883.964,571.618,2286.161z"/>
		<g>
			
				<linearGradient id="SVGID_00000125588452120085636250000016007724095717123481_" gradientUnits="userSpaceOnUse" x1="2137.448" y1="2010.451" x2="1930.0228" y2="2622.6082">
				<stop  offset="0" style="stop-color:#09005D"/>
				<stop  offset="1" style="stop-color:#1A0F91"/>
			</linearGradient>
			<path style="fill:url(#SVGID_00000125588452120085636250000016007724095717123481_);" d="M2223.463,2654.015
				c-1.155-14.321-15.783-26.717-40.553-36.656c26.919-14.843,41.81-30.752,40.553-46.355
				c-3.807-47.216-153.332-73.686-333.974-59.12c-180.641,14.565-323.995,64.648-320.187,111.863
				c1.153,14.323,15.783,26.717,40.553,36.656c-26.921,14.845-41.812,30.754-40.553,46.357
				c1.153,14.319,15.783,26.715,40.553,36.654c-26.921,14.843-41.812,30.754-40.553,46.357
				c1.153,14.321,15.783,26.717,40.553,36.654c-26.921,14.845-41.812,30.754-40.553,46.357
				c1.684,20.882,31.905,37.694,80.681,48.706c-0.633,15.432-0.279,32.345,1.236,51.018c7.067,87.003,104.93,155.22,234.365,155.22
				c129.439,0,241.466-93.011,242.74-180.292c0.311-21.389-0.6-40.217-2.536-56.949c61.931-20.68,99.649-45.943,97.675-70.447
				c-1.155-14.321-15.783-26.717-40.553-36.654c26.919-14.845,41.81-30.754,40.553-46.357
				c-1.155-14.321-15.783-26.718-40.553-36.654C2209.829,2685.528,2224.72,2669.619,2223.463,2654.015z"/>
			<g>
				<path style="fill:#7D97F4;" d="M1805.903,2940.277c-53.647,0-102.736-3.946-143.296-11.713c-2.354-0.45-3.896-2.722-3.446-5.077
					c0.45-2.35,2.713-3.896,5.077-3.444c63.466,12.15,148.232,14.828,238.688,7.534c74.017-5.969,143.236-17.906,200.176-34.524
					c2.306-0.672,4.71,0.648,5.38,2.948c0.672,2.3-0.648,4.708-2.948,5.38c-57.497,16.781-127.316,28.829-201.911,34.844
					C1870.025,2938.935,1837.189,2940.277,1805.903,2940.277z"/>
				<path style="fill:#7D97F4;" d="M1806.804,2857.19c-69.705,0-131.995-6.555-175.933-19.068c-2.304-0.655-3.638-3.056-2.985-5.36
					c0.659-2.306,3.05-3.639,5.362-2.985c62.611,17.828,163.422,23.354,269.679,14.789c105.105-8.474,203.13-29.802,262.215-57.055
					c2.178-0.999,4.754-0.052,5.759,2.123c1.001,2.177,0.052,4.755-2.123,5.758c-59.964,27.654-159.088,49.271-265.154,57.823
					C1870.525,2855.883,1837.922,2857.19,1806.804,2857.19z"/>
				<path style="fill:#7D97F4;" d="M1805.912,2774.24c-75.26,0-141.121-7.699-185.448-22.316c-2.278-0.75-3.513-3.204-2.763-5.478
					c0.75-2.276,3.194-3.514,5.478-2.763c61.687,20.341,166.267,27.019,279.747,17.873c105.098-8.473,203.123-29.802,262.215-57.057
					c2.178-0.998,4.754-0.05,5.759,2.123c1.001,2.177,0.052,4.755-2.123,5.758c-59.969,27.656-159.093,49.274-265.154,57.824
					C1870.014,2772.914,1837.151,2774.24,1805.912,2774.24z"/>
				<path style="fill:#7D97F4;" d="M1806.491,2691.189c-59.699,0-113.998-4.827-156.212-14.206c-2.339-0.52-3.814-2.837-3.294-5.175
					c0.52-2.341,2.847-3.818,5.177-3.294c63.477,14.104,154.879,17.758,250.764,10.027c104.163-8.399,201.686-29.495,260.877-56.44
					c2.179-0.997,4.751-0.03,5.745,2.153c0.994,2.18,0.03,4.753-2.152,5.747c-60.053,27.337-158.661,48.715-263.772,57.19
					C1870.412,2689.87,1837.711,2691.189,1806.491,2691.189z"/>
			</g>
			
				<linearGradient id="SVGID_00000180324877482953628150000013637469408007529097_" gradientUnits="userSpaceOnUse" x1="1916.0226" y1="539.7585" x2="1865.4303" y2="2614.0107">
				<stop  offset="0" style="stop-color:#FF928E"/>
				<stop  offset="1" style="stop-color:#FE7062"/>
			</linearGradient>
			<path style="fill:url(#SVGID_00000180324877482953628150000013637469408007529097_);" d="M1448.058,2234.987
				c-21.941-77.709-59.205-150.33-109.394-213.585c-107.539-135.532-282.975-411.163-304.569-787.352
				c-31.409-547.183,453.88-821.134,896.713-783.943c442.834,37.191,879.798,366.913,831.962,875.96
				c-29.434,313.218-204.745,550.798-335.275,687.238c-82.885,86.641-142.009,192.758-174.014,308.311
				c-39.173,141.432-132.395,317.684-353.971,328.427C1612.795,2663.946,1493.716,2396.697,1448.058,2234.987z"/>
			
				<linearGradient id="SVGID_00000031928054081834683220000012164770823380806032_" gradientUnits="userSpaceOnUse" x1="2060.7886" y1="1822.0732" x2="2124.4192" y2="3843.7988">
				<stop  offset="0" style="stop-color:#E1473D"/>
				<stop  offset="1" style="stop-color:#E9605A"/>
			</linearGradient>
			<path style="fill:url(#SVGID_00000031928054081834683220000012164770823380806032_);" d="M1972.749,2540.926l154.948-1007.79
				c3.2-20.819,13.446-34.801,22.885-31.229c9.439,3.574,14.495,23.347,11.295,44.168c-0.087,0.555-0.2,1.24-0.296,1.784
				l-176.496,998.426c-1.327,7.509-5.141,12.25-8.517,10.592C1973.293,2555.267,1971.637,2548.195,1972.749,2540.926z"/>
			
				<linearGradient id="SVGID_00000162336763645771688460000014701145300637082539_" gradientUnits="userSpaceOnUse" x1="1710.2759" y1="1833.106" x2="1773.9066" y2="3854.8362">
				<stop  offset="0" style="stop-color:#E1473D"/>
				<stop  offset="1" style="stop-color:#E9605A"/>
			</linearGradient>
			<path style="fill:url(#SVGID_00000162336763645771688460000014701145300637082539_);" d="M1811.908,2548.928l-154.948-1007.79
				c-3.2-20.819-13.448-34.801-22.884-31.229c-9.439,3.574-14.495,23.347-11.295,44.168c0.085,0.553,0.2,1.24,0.296,1.784
				l176.496,998.425c1.327,7.509,5.141,12.25,8.517,10.592C1811.364,2563.268,1813.021,2556.198,1811.908,2548.928z"/>
			<path style="opacity:0.7;fill:#FFFFFF;" d="M2126.584,1446.608c-3.935-6.328-13.04-8.691-20.34-5.282l-86.278,40.313
				l-29.949-85.332c-1.584-4.451-5.256-8.399-10.492-10.557c-9.924-4.09-21.794-0.433-26.512,8.171l-0.152,0.278l-70.954,129.371
				l-65.842-184.166l-0.109-0.305c-1.612-4.495-5.01-8.534-9.966-11.238c-11.042-6.028-25.625-3.154-32.579,6.417l-99.194,136.555
				c-4.035,5.597-2.647,13.096,3.494,17.232c6.555,4.418,16.002,3.391,21.095-2.291l87.34-97.427l78.634,175.195l0.059,0.135
				c1.26,2.802,3.633,5.249,6.928,6.79c7.379,3.455,16.592,1.072,20.578-5.325l75.886-121.773l28.561,61.591l0.252,0.548
				c0.207,0.442,0.442,0.879,0.71,1.308c3.931,6.322,13.029,8.684,20.323,5.276l102.413-47.853
				C2127.791,1460.829,2130.519,1452.935,2126.584,1446.608z"/>
		</g>
		<g>
			<g>
				
					<linearGradient id="SVGID_00000160874097172862126170000009596281016561443219_" gradientUnits="userSpaceOnUse" x1="491.603" y1="3181.0813" x2="601.5063" y2="3181.0813">
					<stop  offset="0" style="stop-color:#09005D"/>
					<stop  offset="1" style="stop-color:#1A0F91"/>
				</linearGradient>
				<path style="fill:url(#SVGID_00000160874097172862126170000009596281016561443219_);" d="M506.902,3142.354
					c0,0-12.213,19.251-15.285,73.148c-0.286,5.021,3.692,9.3,8.722,9.3h95.514c3.843,0,6.586-3.768,5.355-7.409
					c-5.597-16.565-22.52-56.953-60.28-80.032L506.902,3142.354z"/>
				
					<linearGradient id="SVGID_00000083798687066058213260000016743464962059549312_" gradientUnits="userSpaceOnUse" x1="502.7515" y1="3130.0105" x2="547.3247" y2="3130.0105">
					<stop  offset="0" style="stop-color:#FEBBBA"/>
					<stop  offset="1" style="stop-color:#FF928E"/>
				</linearGradient>
				<path style="fill:url(#SVGID_00000083798687066058213260000016743464962059549312_);" d="M502.751,3105.834l5.402,45.298
					c0.466,3.908,3.529,7.036,7.439,7.487c5.224,0.602,12.818,1.026,20.197-0.191c6.708-1.106,11.535-7.081,11.535-13.879v-43.736
					L502.751,3105.834z"/>
				
					<linearGradient id="SVGID_00000183239343296979781550000000118550864618250149_" gradientUnits="userSpaceOnUse" x1="725.325" y1="3179.3242" x2="897.7672" y2="3179.3242">
					<stop  offset="0" style="stop-color:#09005D"/>
					<stop  offset="1" style="stop-color:#1A0F91"/>
				</linearGradient>
				<path style="fill:url(#SVGID_00000183239343296979781550000000118550864618250149_);" d="M743.221,3137.361
					c0,0-18.281,28.416-17.89,67.421c0.092,9.187,7.784,16.506,16.972,16.506h148.344c6.946,0,9.766-8.926,4.081-12.918
					c-28.07-19.712-83.244-56.535-123.149-71.009H743.221z"/>
				
					<linearGradient id="SVGID_00000044166430358710371980000013132668052378471589_" gradientUnits="userSpaceOnUse" x1="727.9447" y1="3110.2185" x2="772.272" y2="3110.2185">
					<stop  offset="0" style="stop-color:#FEBBBA"/>
					<stop  offset="1" style="stop-color:#FF928E"/>
				</linearGradient>
				<path style="fill:url(#SVGID_00000044166430358710371980000013132668052378471589_);" d="M727.945,3088.44l11.523,55.945
					c1.289,6.257,7.41,10.465,13.646,9.074c3.791-0.846,8.263-2.468,13.041-5.455c4.541-2.839,6.843-8.241,5.915-13.516
					l-11.919-67.777L727.945,3088.44z"/>
				
					<linearGradient id="SVGID_00000077312040347256342790000002467725903987772598_" gradientUnits="userSpaceOnUse" x1="475.0568" y1="2717.0225" x2="777.2516" y2="2717.0225">
					<stop  offset="0" style="stop-color:#09005D"/>
					<stop  offset="1" style="stop-color:#1A0F91"/>
				</linearGradient>
				<path style="fill:url(#SVGID_00000077312040347256342790000002467725903987772598_);" d="M523.917,2310.612
					c0,0-40.066,35.323-47.605,77.82c-7.54,42.498,21.363,733.227,21.363,733.227s40.064,6.666,60.717-5.849
					c0,0,24.495-448.279,43.115-551.864c0,0,97.645,464.357,124.701,548.261c0,0,38.598,4.696,51.045-2.649
					c0,0-17.167-673.437-49.307-780.452L523.917,2310.612z"/>
				<path style="fill:#7D97F4;" d="M600.336,2549.377c-1.933,0-3.696-1.297-4.204-3.253l-16.588-63.639l-35.336-22.667
					c-2.021-1.297-2.61-3.988-1.313-6.009c1.297-2.025,3.981-2.614,6.009-1.313l36.768,23.587c0.92,0.589,1.586,1.505,1.859,2.564
					l17.016,65.283c0.608,2.325-0.785,4.701-3.111,5.305C601.068,2549.331,600.702,2549.377,600.336,2549.377z"/>
				<path style="fill:#91B3FA;" d="M835.806,1840.05c-168.44,16.464-205.55,58.705-205.55,58.705l102.682,111.355
					c0,0,162.455-32.934,262.871-144.269c-26.156-19.563-46.083-42.818-59.514-61.305
					C908.45,1822.546,875.097,1836.209,835.806,1840.05z"/>
				
					<linearGradient id="SVGID_00000045617650051407327400000005826705145255427227_" gradientUnits="userSpaceOnUse" x1="715.9141" y1="1775.4751" x2="880.6559" y2="1775.4751" gradientTransform="matrix(0.9838 -0.1793 0.1793 0.9838 -101.123 105.208)">
					<stop  offset="0" style="stop-color:#FEBBBA"/>
					<stop  offset="1" style="stop-color:#FF928E"/>
				</linearGradient>
				<path style="fill:url(#SVGID_00000045617650051407327400000005826705145255427227_);" d="M1051.262,1549.133
					c-1.193-5.276-8.662-5.409-10.043-0.179l-12.939,49.04c-2.5,9.475-2.03,19.489,1.347,28.688l12.219,24.943
					c4.559,12.419,3.603,26.17-2.674,37.815c-15.022,27.867-48.36,79.837-102.878,115.096
					c13.432,18.487,33.358,41.742,59.514,61.305c36.845-40.85,65.349-92.243,74.395-156.455
					c9.083-4.709,13.861-14.939,11.646-24.927L1051.262,1549.133z"/>
				
					<linearGradient id="SVGID_00000080205312183375940860000000481265633062170546_" gradientUnits="userSpaceOnUse" x1="688.4863" y1="1543.7534" x2="343.7367" y2="2177.197" gradientTransform="matrix(0.9838 -0.1793 0.1793 0.9838 -101.123 105.208)">
					<stop  offset="0" style="stop-color:#FEBBBA"/>
					<stop  offset="1" style="stop-color:#FF928E"/>
				</linearGradient>
				<path style="fill:url(#SVGID_00000080205312183375940860000000481265633062170546_);" d="M718.385,1710.936l-27.63,130.489
					c0,0,64.384,29.153,109.695,17.004l4.935-113.705L718.385,1710.936z"/>
				<g>
					
						<linearGradient id="SVGID_00000139279664512043609510000000000089812537390487_" gradientUnits="userSpaceOnUse" x1="346.066" y1="4024.4084" x2="193.7043" y2="4225.9707" gradientTransform="matrix(0.7004 -0.7138 0.7138 0.7004 -2347.9644 -936.8727)">
						<stop  offset="0" style="stop-color:#FEBBBA"/>
						<stop  offset="1" style="stop-color:#FF928E"/>
					</linearGradient>
					<path style="fill:url(#SVGID_00000139279664512043609510000000000089812537390487_);" d="M787.352,1612.841
						c1.434,1.407,59.241,120.981,59.241,120.981l-68.976,31.556l-71.627-105.192
						C705.99,1660.187,763.348,1589.289,787.352,1612.841z"/>
					
						<linearGradient id="SVGID_00000127738066888152404130000001575622259575824564_" gradientUnits="userSpaceOnUse" x1="229.7034" y1="4073.0305" x2="411.6998" y2="4073.0305" gradientTransform="matrix(0.7004 -0.7138 0.7138 0.7004 -2347.9644 -936.8727)">
						<stop  offset="0" style="stop-color:#09005D"/>
						<stop  offset="1" style="stop-color:#1A0F91"/>
					</linearGradient>
					<path style="fill:url(#SVGID_00000127738066888152404130000001575622259575824564_);" d="M736.394,1672.611l33.369,58.327
						c0.428,0.748,0.94,1.418,1.555,2.023c3.76,3.699,17.629,15.477,28.814,0.552c10.149-13.542,19.613-25.751,29.726-29.497
						c4.54-1.681,9.606,0.353,11.712,4.713c5.249,10.866,16.625,35.569,23.234,58.539c1.341,4.662-1.155,9.55-5.68,11.295
						c-13.637,5.257-42.709,15.54-68.034,18.333c-3.432,0.378-6.784-1.111-8.76-3.941c-9.635-13.802-39.074-55.64-49.08-66.029
						c-9.392-9.752-27.403-6.148-34.858-4.095c-2.444,0.673-5.033,0.318-7.207-0.984c-7.688-4.603-23.008-17.139-8.497-38.132
						c3.037-4.394,1.844-10.372-2.64-13.273c-8.927-5.777-19.394-17.001-9.568-35.077c9.986-18.373,27.488-18.929,38.62-17.022
						c4.502,0.771,8.781-1.853,10.371-6.133c0.906-2.437,2.88-4.517,6.893-4.897c5.407-0.513,9.074-5.771,8.004-11.096
						c-2.055-10.23-0.743-23.867,16.052-32.654c29.802-15.591,55.067,11.341,61.17,33.762c6.102,22.421-27.171,37.488-47.949,39.687
						c-15.798,1.672-24.555,19.229-27.845,27.549C734.752,1667.195,734.987,1670.151,736.394,1672.611z"/>
					
						<linearGradient id="SVGID_00000119837580409343996860000016138867790031524027_" gradientUnits="userSpaceOnUse" x1="122.9179" y1="4184.0308" x2="245.1224" y2="4058.6523" gradientTransform="matrix(0.7004 -0.7138 0.7138 0.7004 -2347.9644 -936.8727)">
						<stop  offset="0" style="stop-color:#FEBBBA"/>
						<stop  offset="1" style="stop-color:#FF928E"/>
					</linearGradient>
					<path style="fill:url(#SVGID_00000119837580409343996860000016138867790031524027_);" d="M745.612,1748.042
						c0,0-12.31-38.611-29.111-37.55c-16.801,1.06-30.348,17.496-9.95,36.709C731.924,1771.1,745.612,1748.042,745.612,1748.042z"/>
				</g>
				<g>
					
						<linearGradient id="SVGID_00000127766430956620473760000009245928469680213380_" gradientUnits="userSpaceOnUse" x1="1697.355" y1="791.9996" x2="1171.2023" y2="2046.6699">
						<stop  offset="0" style="stop-color:#4F52FF"/>
						<stop  offset="1" style="stop-color:#4042E2"/>
					</linearGradient>
					<path style="fill:url(#SVGID_00000127766430956620473760000009245928469680213380_);" d="M1852.483,1503.026
						c-27.954,26.685-73.92,52.835-143.98,45.761c-133.171-13.453-147.424-137.08-132.905-201.717
						c12.249-54.539,126.293-137.414,226.213-86.305c21.202,10.842,45.134-7.716,40.935-32.167l-50.352-293.222l-321.866,64.662
						c-28.011,5.627-51.813-22.026-43.922-51.314c8.62-31.978,14.9-74.567,10.225-125.228
						c-10.805-117.022-113.955-151.431-206.065-125.748c-79.335,22.121-157.178,168.585-47.65,285.905
						c21.434,22.953,9.824,62.61-19.843,68.581l-270.827,54.511l59.567,346.882c64.888-123.767,192.711-118.926,259.555-19.155
						c67.1,100.157,44.572,206.819-63.261,235.631c-55.158,14.736-96.241-0.126-123.109-17.97
						c-14.055-9.336-31.26,3.083-28.265,20.526l48.078,279.976l267.621-44.427c29.687-4.928,53.66,29.128,39.432,57.145
						c-12.346,24.303-20.427,53.659-16.323,86.685c11.863,95.474,93.75,175.364,184.505,171.303
						c91.402-4.094,170.67-109.753,141.414-198.832c-13.861-42.209-37.215-80.634-57.914-109.342
						c-17.256-23.932-4.826-57.958,22.848-62.556l321.29-53.38l-47.876-278.8
						C1895.991,1497.038,1869.091,1487.176,1852.483,1503.026z"/>
				</g>
				<path style="fill:#7D97F4;" d="M903.726,1903.081c-69.885-52.298-186.332-60.458-252.88-60.399
					c-29.155,0.025-54.113,20.8-59.213,49.504c-14.787,83.212-56.683,300.324-65.614,337.954
					c-7.328,30.872-15.331,61.177-20.468,80.149c-3.069,11.333,3.547,23.021,14.867,26.139
					c58.959,16.247,161.87,28.03,203.509,32.355c9.159,0.952,16.629-7.156,14.978-16.215c-1.4-7.682-0.686-15.603,2.067-22.91
					l104.263-276.815c112.189,86.474,195.646,81.042,254.305,46.949c-16.503-30.703-29.369-62.132-38.651-94.279
					C965.237,2006.528,903.726,1903.081,903.726,1903.081z"/>
				
					<linearGradient id="SVGID_00000078013440355582181590000008421809684396515217_" gradientUnits="userSpaceOnUse" x1="1290.8246" y1="874.981" x2="1068.2126" y2="1522.5797" gradientTransform="matrix(0.9838 -0.1793 0.1793 0.9838 -101.123 105.208)">
					<stop  offset="0" style="stop-color:#FEBBBA"/>
					<stop  offset="1" style="stop-color:#FF928E"/>
				</linearGradient>
				<path style="fill:url(#SVGID_00000078013440355582181590000008421809684396515217_);" d="M1211.038,1960.206l-20.808-19.269
					c-47.41,47.095-91.101,64.172-129.341,64.577c9.282,32.146,22.147,63.575,38.651,94.279
					C1176.817,2054.878,1211.038,1960.206,1211.038,1960.206z"/>
				
					<linearGradient id="SVGID_00000060029889821964785240000011595663897126863751_" gradientUnits="userSpaceOnUse" x1="1413.0227" y1="916.9938" x2="1190.413" y2="1564.5858" gradientTransform="matrix(0.9838 -0.1793 0.1793 0.9838 -101.123 105.208)">
					<stop  offset="0" style="stop-color:#FEBBBA"/>
					<stop  offset="1" style="stop-color:#FF928E"/>
				</linearGradient>
				<path style="fill:url(#SVGID_00000060029889821964785240000011595663897126863751_);" d="M1199.309,1962.761l94.977-13.51
					l77.991-64.32c-13.887-5.541-81.459,23.273-81.459,23.273s-75.71,2.285-95.656,5.893c-16.567,2.997-9.86,26.383-7.112,34.221
					c0.561,1.599,0.957,2.551,0.957,2.551L1199.309,1962.761z"/>
			</g>
		</g>
		<g>
			
				<linearGradient id="SVGID_00000147910815919611235000000009957624208175850892_" gradientUnits="userSpaceOnUse" x1="2977.4011" y1="1456.0154" x2="2846.2881" y2="1857.9039">
				<stop  offset="0" style="stop-color:#FEBBBA"/>
				<stop  offset="1" style="stop-color:#FF928E"/>
			</linearGradient>
			<path style="fill:url(#SVGID_00000147910815919611235000000009957624208175850892_);" d="M2849.745,1485.735
				c0,0-182.402,233.535,25.706,471.058l78.239-7.29c0,0-150.609-241.829-83.527-434.6l110.827,8.091l61.287-39.947
				L2849.745,1485.735z"/>
			<g>
				
					<linearGradient id="SVGID_00000078037576090485215960000003091267538281579962_" gradientUnits="userSpaceOnUse" x1="2869.0486" y1="364.2833" x2="2356.3635" y2="1942.8125">
					<stop  offset="0" style="stop-color:#4F52FF"/>
					<stop  offset="1" style="stop-color:#4042E2"/>
				</linearGradient>
				<path style="fill:url(#SVGID_00000078037576090485215960000003091267538281579962_);" d="M3163.496,1135.04
					c-23.463,14.463-52.194,28.095-85.077,35.82c-182.018,42.771-171.085-190.867-81.989-290.713
					c45.584-51.081,103.761-39.562,150.018-15.838c34.012,17.445,74.335-9.015,72.032-47.937L3199.582,497l-298.317,26.117
					c-33.394,2.924-52.021,40.967-34.938,70.069c19.69,33.545,38.615,79.561,41.928,135.547
					c7.313,123.588-152.548,165.272-204.057,173.13c-46.554,7.101-236.947-66.264-134.651-281.492
					c14.861-31.268-8.056-66.833-41.217-63.931l-329.766,28.862l18.72,316.354c1.561,26.38-25.963,43.203-47.129,29.225
					c-99.751-65.891-230.257,8.392-249.657,64.685c-22.993,66.715-22.486,199.272,116.907,229.221
					c73.333,15.753,125.079-6.51,157.819-31.462c19.452-14.821,46.767-1.208,48.26,24.033l17.8,300.794l340.206-18.28
					c33.775-1.815,51.361-42.207,30.356-69.89c-30.034-39.584-63.712-87.66-73.415-115.879
					c-18.564-54.004,5.401-168.696,132.718-194.881c128.484-26.428,227.77,56.51,229.469,174.13
					c0.763,52.915-9.318,97.135-20.629,129.747c-10.194,29.392,12.92,60.039,43.423,58.4l311.77-16.752l-17.19-290.501
					C3235.769,1136.7,3195.165,1115.518,3163.496,1135.04z"/>
			</g>
			<g>
				
					<linearGradient id="SVGID_00000046328649542446157770000017461291017980062080_" gradientUnits="userSpaceOnUse" x1="2949.6445" y1="2884.1426" x2="3225.9067" y2="2884.1426">
					<stop  offset="0" style="stop-color:#FEBBBA"/>
					<stop  offset="1" style="stop-color:#FF928E"/>
				</linearGradient>
				<path style="fill:url(#SVGID_00000046328649542446157770000017461291017980062080_);" d="M2949.645,2629.112
					c0,0,147.784,322.099,225.321,455.512c0,0,15.4,83.946,0,110.343l-13.124,5.833l61.251-1.823c0,0,5.441-112.916,1.192-119.223
					c-4.249-6.307-12.748-5.894-12.748-5.894s-26.264-208.077-102.325-252.485l-73.713-253.89L2949.645,2629.112z"/>
				
					<linearGradient id="SVGID_00000061439508967059694490000003337137852114273445_" gradientUnits="userSpaceOnUse" x1="3329.3745" y1="2266.3357" x2="3192.5608" y2="3155.6201">
					<stop  offset="0" style="stop-color:#09005D"/>
					<stop  offset="1" style="stop-color:#1A0F91"/>
				</linearGradient>
				<path style="fill:url(#SVGID_00000061439508967059694490000003337137852114273445_);" d="M3135.682,3216.614
					c-0.091,1.477,47.829,0.802,73.86,0.327c9.612-0.175,17.806-6.931,19.854-16.323l19.658-103.278
					c1.868-9.815-4.365-19.348-14.104-21.574l-10.972-2.508c0,0-15.653,21.472-10.726,41.689c4.927,20.217,9.312,72.584-3.14,78.686
					c-12.452,6.102-48.271,7.168-48.271,7.168S3136.501,3203.313,3135.682,3216.614z"/>
				
					<linearGradient id="SVGID_00000165950675906847750840000007256954484979774851_" gradientUnits="userSpaceOnUse" x1="3039.8914" y1="2221.801" x2="2903.0774" y2="3111.0884">
					<stop  offset="0" style="stop-color:#09005D"/>
					<stop  offset="1" style="stop-color:#1A0F91"/>
				</linearGradient>
				<path style="fill:url(#SVGID_00000165950675906847750840000007256954484979774851_);" d="M2809.571,3218.488
					c-4.847,2.761-2.848,10.161,2.73,10.105c43.562-0.438,141.174-1.816,149.849-5.423c11.198-4.657-4.081-44.897-20.162-58.517
					l-88.789,28.978L2809.571,3218.488z"/>
				
					<linearGradient id="SVGID_00000172429046371096063250000014577203504911114137_" gradientUnits="userSpaceOnUse" x1="2782.01" y1="2904.6846" x2="2941.9878" y2="2904.6846">
					<stop  offset="0" style="stop-color:#FEBBBA"/>
					<stop  offset="1" style="stop-color:#FF928E"/>
				</linearGradient>
				<path style="fill:url(#SVGID_00000172429046371096063250000014577203504911114137_);" d="M2782.01,2608.569
					c0,0,95.501,462.003,122.518,552.125l-63.91,40.106c0,0,32.027-5.447,55.776-7.168c23.749-1.721,45.594-28.978,45.594-28.978
					l-7.656-12.212c0,0-23.949-459.487-18.119-511.663L2782.01,2608.569z"/>
				
					<linearGradient id="SVGID_00000131342920676499339000000015252341436926726328_" gradientUnits="userSpaceOnUse" x1="2668.5496" y1="1899.9958" x2="2946.8022" y2="2547.5652">
					<stop  offset="0" style="stop-color:#FEBBBA"/>
					<stop  offset="1" style="stop-color:#FF928E"/>
				</linearGradient>
				<path style="fill:url(#SVGID_00000131342920676499339000000015252341436926726328_);" d="M2544.942,1530.945
					c0,0-13.173,240.33,205.632,363.139l-52.679,120.144c0,0-198.046-119.788-190.777-446.487c0.21-9.421-3.142-18.586-9.294-25.723
					l-42.103-48.844c-16.041-18.609-22.035-43.855-16.073-67.689l5.542-22.153c1.855-7.416,10.302-10.985,16.913-7.145l4.403,2.557
					c14.016,8.141,25.119,20.482,31.738,35.278l20.673,46.213c5.019,11.221,6.639,15.067,12.332,15.938
					c7.635,1.168,14.77-4.201,16.521-11.724l1.466-6.293C2567.753,1493.905,2566.937,1511.443,2544.942,1530.945z"/>
				
					<linearGradient id="SVGID_00000048489314146187480930000000785650757705988776_" gradientUnits="userSpaceOnUse" x1="2780.5867" y1="1874.6812" x2="3367.7437" y2="3037.5938">
					<stop  offset="0" style="stop-color:#4F52FF"/>
					<stop  offset="1" style="stop-color:#4042E2"/>
				</linearGradient>
				<path style="fill:url(#SVGID_00000048489314146187480930000000785650757705988776_);" d="M2742.958,1876.074
					c36.606,10.151,160.621,42.775,238.042,41.442l-47.535,268.245l3.783,43.752l-154.983-0.694c0,0-43.629-101.324-78.051-151.84
					c-9.942-14.59-2.543-31.992,3.092-48.724l-7.742-5.154c-7.878-5.245-11.294-15.098-8.354-24.093l37.741-115.471
					C2730.912,1877.717,2737.04,1874.433,2742.958,1876.074z"/>
				
					<linearGradient id="SVGID_00000098943976089938593440000002897498106517170085_" gradientUnits="userSpaceOnUse" x1="2640.7649" y1="2181.9717" x2="3153.8142" y2="2760.5774">
					<stop  offset="0" style="stop-color:#09005D"/>
					<stop  offset="1" style="stop-color:#1A0F91"/>
				</linearGradient>
				<path style="fill:url(#SVGID_00000098943976089938593440000002897498106517170085_);" d="M2769.846,2205.924l3.049,26.506
					c0,0-43.797,131.165,21.9,437.517c0,0,142.285,40.309,259.229-56.146c0,0-32.989-289.149-41.999-302.618
					c-44.88-67.086-74.777-81.67-74.777-81.67l-1.348-28.958C2935.9,2200.555,2810.822,2223.169,2769.846,2205.924z"/>
				
					<linearGradient id="SVGID_00000033327624948409669330000010372374985777786537_" gradientUnits="userSpaceOnUse" x1="2830.5081" y1="1858.1865" x2="2928.4058" y2="1858.1865">
					<stop  offset="0" style="stop-color:#FEBBBA"/>
					<stop  offset="1" style="stop-color:#FF928E"/>
				</linearGradient>
				<path style="fill:url(#SVGID_00000033327624948409669330000010372374985777786537_);" d="M2830.515,1897.694
					c-0.544-0.718,32.356-99.329,32.356-99.329l47.126,4.276l18.41,111.869C2928.406,1914.509,2854.55,1929.416,2830.515,1897.694z"
					/>
				
					<linearGradient id="SVGID_00000037676254375216066110000010402669681252625280_" gradientUnits="userSpaceOnUse" x1="2986.0981" y1="1731.6742" x2="3698.667" y2="1780.1288">
					<stop  offset="0" style="stop-color:#FEBBBA"/>
					<stop  offset="1" style="stop-color:#FF928E"/>
				</linearGradient>
				<path style="fill:url(#SVGID_00000037676254375216066110000010402669681252625280_);" d="M2898.714,1642.854
					c-3.142,1.957-100.702,42.275-79.74,143.559c1.239,5.985,5.233,11.058,10.814,13.548c14.316,6.386,45.137,17.32,82.001,13.573
					c51.108-5.194,84.597-94.378,83.173-120.33C2993.537,1667.252,2929.858,1623.461,2898.714,1642.854z"/>
				
					<linearGradient id="SVGID_00000137832491272790947300000008653079007545768126_" gradientUnits="userSpaceOnUse" x1="3133.1448" y1="1712.2727" x2="2291.1726" y2="2698.2664">
					<stop  offset="0" style="stop-color:#09005D"/>
					<stop  offset="1" style="stop-color:#1A0F91"/>
				</linearGradient>
				<path style="fill:url(#SVGID_00000137832491272790947300000008653079007545768126_);" d="M2928.406,1603.478
					c-2.565,0.336-56.378,19.079-29.692,58.074c26.686,38.995,36.698,61.95,24.075,79.073c-11.5,15.6-36.974,6.709-34.751,39.165
					c0.445,6.497-2.365,12.804-7.757,16.454c-24.005,16.249-82.572,66.264-24.547,137.592c4.716,5.797,5.688,13.801,2.049,20.328
					c-16.995,30.483-52.694,119.782,76.548,169.318c127.711,48.948,173.822-34.534,186.705-67.902
					c2.786-7.217,9.892-11.635,17.62-11.27c14.033,0.663,33.919-1.672,33.005-20.425c-0.555-11.391-7.663-21.599-16.062-29.783
					c-8.313-8.1-6.67-22.283,3.421-28.017c7.623-4.331,14.37-11.093,17.217-21.644c7.74-28.68-7.712-114.433-89.908-128.966
					c-6.857-1.212-14.036-7.641-15.035-14.531c-0.015-0.102-0.031-0.205-0.048-0.307c-1.102-6.664,1.153-13.478,6.599-17.474
					c13.125-9.628,29.957-29.012,16.286-60.097c-12.125-27.57-35.38-36.87-52.654-39.834c-10.142-1.74-16.81-11.332-14.672-21.397
					C3032.631,1634.406,3027.553,1590.479,2928.406,1603.478z"/>
			</g>
		</g>
	</g>
</g>
</svg>