<?xml version="1.0" encoding="utf-8"?>
<!-- Generator: Adobe Illustrator 27.5.0, SVG Export Plug-In . SVG Version: 6.00 Build 0)  -->
<svg version="1.1" xmlns="http://www.w3.org/2000/svg" xmlns:xlink="http://www.w3.org/1999/xlink" x="0px" y="0px"
	 viewBox="0 0 500 500" style="enable-background:new 0 0 500 500;" xml:space="preserve">
<g id="Background_Simple">
	<g>
		<path style="fill:#92E3A9;" d="M330.486,47.673c0,0-80.235-29.893-158.072,15.103C94.578,107.771,56.149,198.559,23.084,271.255
			C-9.982,343.951,10.497,418.579,70.772,453.25c60.275,34.671,100.353-14.81,184.288-16.184
			c83.936-1.374,106.669,11.119,175.744-36.239c69.076-47.358,80.255-161.121,24.246-246.11
			C399.042,69.729,330.486,47.673,330.486,47.673z"/>
		<path style="opacity:0.7;fill:#FFFFFF;" d="M330.486,47.673c0,0-80.235-29.893-158.072,15.103
			C94.578,107.771,56.149,198.559,23.084,271.255C-9.982,343.951,10.497,418.579,70.772,453.25
			c60.275,34.671,100.353-14.81,184.288-16.184c83.936-1.374,106.669,11.119,175.744-36.239
			c69.076-47.358,80.255-161.121,24.246-246.11C399.042,69.729,330.486,47.673,330.486,47.673z"/>
	</g>
</g>
<g id="Clock">
	<g style="opacity:0.3;">
		
			<ellipse transform="matrix(0.7071 -0.7071 0.7071 0.7071 -53.4264 80.6695)" style="fill:none;stroke:#000000;stroke-miterlimit:10;" cx="70.664" cy="104.826" rx="36.284" ry="36.284"/>
		<circle style="fill:none;stroke:#000000;stroke-miterlimit:10;" cx="70.664" cy="104.826" r="33.808"/>
		<polyline style="fill:none;stroke:#000000;stroke-miterlimit:10;" points="77.096,114.978 70.663,104.826 42.947,104.826 		"/>
	</g>
</g>
<g id="Window">
	<g style="opacity:0.3;">
		<rect x="339.943" y="69.076" style="fill:none;stroke:#000000;stroke-miterlimit:10;" width="36.853" height="74.999"/>
		<rect x="381.321" y="69.076" style="fill:none;stroke:#000000;stroke-miterlimit:10;" width="36.853" height="74.999"/>
		<rect x="422.7" y="69.076" style="fill:none;stroke:#000000;stroke-miterlimit:10;" width="36.853" height="74.999"/>
		<rect x="339.943" y="147.954" style="fill:none;stroke:#000000;stroke-miterlimit:10;" width="36.853" height="74.999"/>
		<rect x="381.321" y="147.954" style="fill:none;stroke:#000000;stroke-miterlimit:10;" width="36.853" height="74.999"/>
		<rect x="422.7" y="147.954" style="fill:none;stroke:#000000;stroke-miterlimit:10;" width="36.853" height="74.999"/>
		<rect x="339.943" y="226.832" style="fill:none;stroke:#000000;stroke-miterlimit:10;" width="36.853" height="74.999"/>
		<rect x="381.321" y="226.832" style="fill:none;stroke:#000000;stroke-miterlimit:10;" width="36.853" height="74.999"/>
		<rect x="422.7" y="226.832" style="fill:none;stroke:#000000;stroke-miterlimit:10;" width="36.853" height="74.999"/>
		<rect x="339.943" y="305.71" style="fill:none;stroke:#000000;stroke-miterlimit:10;" width="36.853" height="74.999"/>
		<rect x="381.321" y="305.71" style="fill:none;stroke:#000000;stroke-miterlimit:10;" width="36.853" height="74.999"/>
		<rect x="422.7" y="305.71" style="fill:none;stroke:#000000;stroke-miterlimit:10;" width="36.853" height="74.999"/>
	</g>
</g>
<g id="Floor">
	<line style="fill:none;stroke:#263238;stroke-miterlimit:10;" x1="25.944" y1="388.509" x2="492.708" y2="388.509"/>
</g>
<g id="Plant">
	<g>
		<g>
			<path style="fill:#263238;" d="M55.582,288.17l-0.002-0.005c-0.017-0.043,0.003-0.092,0.046-0.11
				c0.044-0.019,0.094,0.001,0.113,0.045c2.608,6.022,4.441,12.344,5.972,18.721c1.477,6.395,2.547,12.881,3.295,19.409l0.467,4.906
				c0.072,0.818,0.161,1.636,0.22,2.455l0.134,2.461c0.071,1.642,0.172,3.283,0.218,4.926L66,345.907l-0.055,2.464
				c-0.036,0.821-0.095,1.64-0.151,2.46c-0.124,1.639-0.224,3.278-0.374,4.913c-0.314,3.268-0.805,6.519-1.311,9.756
				c-0.006,0.042-0.042,0.073-0.086,0.073c-0.048,0-0.086-0.039-0.086-0.087v-0.005c0.009-1.643,0.078-3.278,0.115-4.913
				c0.047-1.634,0.19-3.26,0.167-4.895c-0.008-1.634,0.035-3.263,0.053-4.893l0.045-2.444l-0.043-2.444l-0.022-4.885l-0.132-4.882
				l-0.051-2.443c-0.031-0.814-0.092-1.626-0.137-2.439l-0.3-4.879c-0.571-6.493-1.463-12.963-2.764-19.358
				C59.57,300.616,57.965,294.253,55.582,288.17z"/>
			<path style="fill:#263238;" d="M54.882,313.714c-0.013-0.044,0.01-0.093,0.054-0.108c0.045-0.016,0.094,0.008,0.11,0.053
				c1.406,4.059,2.528,8.211,3.477,12.407c0.907,4.203,1.619,8.461,2.053,12.751c0.434,4.275,0.912,8.555,0.97,12.853
				c0.066,4.296-0.002,8.598-0.457,12.89c-0.005,0.04-0.036,0.073-0.077,0.077c-0.048,0.005-0.09-0.03-0.096-0.077
				c-0.496-4.28-0.799-8.549-1.095-12.816c-0.303-4.266-0.344-8.543-0.622-12.811c-0.258-4.254-0.792-8.491-1.524-12.7
				C56.958,322.022,56.063,317.828,54.882,313.714z"/>
			<path style="fill:#263238;" d="M40.72,322.7c0.026-0.04,0.079-0.052,0.119-0.027c3.545,2.244,6.706,5.071,9.469,8.256
				c1.358,1.616,2.62,3.308,3.702,5.148l0.761,1.436l0.595,1.492c0.215,0.495,0.365,1.004,0.52,1.512
				c0.153,0.509,0.324,1.016,0.462,1.528c1.063,4.104,1.768,8.287,1.959,12.491c0.171,4.202,0.091,8.41-0.47,12.581
				c-0.006,0.039-0.039,0.072-0.08,0.075c-0.048,0.003-0.089-0.032-0.093-0.08l-1.079-12.454c-0.43-4.117-0.694-8.259-1.578-12.28
				c-0.112-0.501-0.257-0.99-0.383-1.487c-0.129-0.496-0.253-0.994-0.437-1.467l-0.506-1.44l-0.651-1.359
				c-0.959-1.799-2.132-3.52-3.393-5.152c-2.529-3.264-5.504-6.239-8.891-8.654l-0.005-0.003
				C40.706,322.79,40.695,322.739,40.72,322.7z"/>
			<path style="fill:#263238;" d="M47.574,338.701c1.93,1.246,3.221,3.206,4.306,5.176c1.034,2.015,1.849,4.151,2.413,6.342
				c0.17,0.543,0.303,1.092,0.421,1.645l0.391,1.656c0.199,1.112,0.355,2.236,0.418,3.363c0.015,1.13,0.047,2.259-0.029,3.385
				c-0.094,1.126-0.222,2.25-0.444,3.363c-0.008,0.032-0.035,0.062-0.069,0.069c-0.048,0.009-0.094-0.021-0.103-0.069
				c-0.273-1.111-0.452-2.212-0.597-3.311c-0.175-1.096-0.345-2.186-0.477-3.276c-0.16-1.086-0.304-2.169-0.388-3.263
				c-0.152-1.079-0.232-2.183-0.468-3.25c-0.379-2.159-1.003-4.267-1.847-6.282c-0.84-1.999-1.934-3.991-3.615-5.4l-0.013-0.011
				c-0.033-0.027-0.041-0.075-0.017-0.112C47.481,338.687,47.534,338.675,47.574,338.701z"/>
			<path style="fill:#263238;" d="M67.435,351.176c0.466-5.529,1.378-11.002,2.24-16.473c0.864-5.471,1.817-10.926,2.818-16.371
				c1.036-5.439,2.12-10.867,3.293-16.276c0.01-0.045,0.054-0.075,0.1-0.067c0.047,0.008,0.078,0.053,0.069,0.1
				c-0.946,5.45-1.802,10.916-2.611,16.386c-0.83,5.467-1.611,10.94-2.303,16.423c-0.676,5.486-1.202,10.983-1.89,16.459
				l-2.022,16.458c-0.005,0.041-0.039,0.075-0.082,0.077c-0.048,0.002-0.088-0.035-0.09-0.083c-0.063-1.387-0.065-2.773-0.099-4.164
				c-0.012-1.389,0.057-2.773,0.081-4.162C66.99,356.706,67.227,353.942,67.435,351.176z"/>
			<path style="fill:#263238;" d="M70.75,351.096c0.296-2.19,0.698-4.367,1.116-6.537l0.776-3.228
				c0.254-1.076,0.495-2.155,0.81-3.217c1.103-4.283,2.513-8.493,4.226-12.573l0.663-1.521l0.737-1.488
				c0.468-1.002,1.035-1.957,1.573-2.923c1.156-1.883,2.356-3.764,3.99-5.291c0.033-0.031,0.085-0.031,0.118,0.001
				c0.034,0.033,0.035,0.087,0.002,0.122l-0.008,0.009c-1.511,1.566-2.613,3.5-3.65,5.411c-0.481,0.983-0.989,1.95-1.4,2.965
				l-0.649,1.505l-0.576,1.536c-1.532,4.093-2.76,8.3-3.684,12.577c-0.504,2.127-0.838,4.295-1.25,6.44l-0.517,3.24
				c-0.187,1.077-0.418,2.147-0.57,3.232c-0.345,2.162-0.743,4.317-1.12,6.481c-0.335,2.169-0.731,4.334-1.188,6.5
				c-0.008,0.039-0.043,0.071-0.085,0.071c-0.048,0-0.087-0.038-0.087-0.086c-0.009-2.209,0.042-4.419,0.154-6.626
				C70.259,355.49,70.52,353.295,70.75,351.096z"/>
			<path style="fill:#263238;" d="M75.325,351.378c1.025-2.901,2.21-5.74,3.501-8.525c1.326-2.769,2.756-5.485,4.403-8.073
				c0.026-0.036,0.078-0.051,0.117-0.028c0.041,0.024,0.055,0.077,0.03,0.118c-1.439,2.687-2.655,5.49-3.758,8.325
				c-1.122,2.827-2.134,5.697-2.981,8.612c-0.865,2.912-1.484,5.88-2.259,8.805c-0.815,2.923-1.473,5.876-2.372,8.836
				c-0.011,0.035-0.044,0.064-0.083,0.064c-0.048,0.001-0.088-0.038-0.088-0.086c-0.044-3.088,0.259-6.175,0.86-9.198
				C73.238,357.188,74.307,354.277,75.325,351.378z"/>
			<path style="fill:#263238;" d="M75.515,361.041c0.524-1.816,1.418-3.509,2.434-5.103c0.998-1.603,2.155-3.118,3.543-4.402
				c0.715-0.619,1.445-1.215,2.253-1.699c0.796-0.497,1.64-0.917,2.556-1.155c0.04-0.01,0.083,0.009,0.1,0.048
				c0.019,0.043,0,0.094-0.044,0.114l-0.01,0.004c-1.656,0.737-3.056,1.957-4.24,3.293c-1.199,1.338-2.156,2.874-2.954,4.472
				c-0.839,1.588-1.272,3.344-2.002,4.979c-0.322,0.839-0.642,1.683-1.014,2.521c-0.316,0.855-0.666,1.707-1.111,2.554l-0.002,0.005
				c-0.014,0.027-0.042,0.046-0.075,0.047c-0.049,0.002-0.09-0.036-0.092-0.085c-0.04-0.946,0.016-1.887,0.105-2.826
				C75.097,362.88,75.293,361.958,75.515,361.041z"/>
		</g>
		<path style="fill:#92E3A9;" d="M75.173,309.97c0,0,9.06-2.091,11.15-11.847c2.091-9.757-4.646-5.575,1.394-20.907
			c6.04-15.332,4.646-18.816,2.555-23.23c-2.091-4.414-3.252-3.02-5.111,2.788c-1.858,5.807-8.595,14.867-11.15,31.825
			C71.456,305.557,75.173,309.97,75.173,309.97z"/>
		<path style="fill:#92E3A9;" d="M57.286,293.477c0,0,6.04-2.091,6.272-13.473c0.232-11.383-4.414-9.06-5.111-23.23
			c-0.697-14.17-1.626-24.159-4.181-24.391c-2.555-0.232-9.292,6.969-11.615,22.765c-2.323,15.796,3.02,26.249,7.666,30.896
			C54.963,290.69,57.286,293.477,57.286,293.477z"/>
		<path style="fill:#92E3A9;" d="M78.425,323.676c0,0,1.394-8.363,4.181-12.312c2.788-3.949,8.827-7.434,12.776-15.099
			c3.949-7.666,8.362-11.383,8.13-0.465c-0.232,10.918-5.11,16.493-11.15,20.21C86.323,319.727,78.425,323.676,78.425,323.676z"/>
		<path style="fill:#92E3A9;" d="M80.981,338.078c0,0,5.575-10.686,13.705-18.584c8.13-7.898,14.635-11.847,12.312-7.898
			c-2.323,3.949-5.111,3.717-9.06,10.686c-3.949,6.969-2.787,12.079-8.363,16.029C84,342.26,80.981,338.078,80.981,338.078z"/>
		<path style="fill:#92E3A9;" d="M81.678,351.784c0.232-0.697,0.465-5.807,8.363-9.989c7.898-4.181,15.332-2.555,14.402-0.465
			c-0.929,2.091-5.807,5.575-10.685,7.666C88.879,351.087,81.678,351.784,81.678,351.784z"/>
		<path style="fill:#92E3A9;" d="M57.751,324.141c0,0,3.484-4.414,1.626-13.705c-1.859-9.292-6.04-6.969-10.686-11.847
			c-4.646-4.878-3.717-5.575-8.362-10.686c-4.646-5.111-8.827-7.898-10.686-5.807c-1.858,2.091,0.929,8.595,3.717,12.312
			c2.787,3.717,7.201,5.575,9.292,10.221c2.091,4.646,1.162,12.079,6.504,15.564C54.499,323.676,57.751,324.141,57.751,324.141z"/>
		<path style="fill:#92E3A9;" d="M46.136,326.696c0,0-8.363-9.524-14.402-16.493c-6.04-6.969-8.363-12.312-8.595-7.666
			c-0.232,4.646-2.091,8.363,2.788,14.402C30.805,322.979,46.136,326.696,46.136,326.696z"/>
		<path style="fill:#92E3A9;" d="M50.55,342.028c0,0,0.232-3.717-13.009-12.312c-13.241-8.595-18.816-10.221-17.422-6.737
			c1.394,3.484,7.201,6.969,13.473,13.241C39.864,342.492,50.55,342.028,50.55,342.028z"/>
		<path style="fill:none;stroke:#263238;stroke-linecap:round;stroke-linejoin:round;stroke-miterlimit:10;" d="M74.621,308.98
			c0,0,3.108-16.665,6.36-28.512c3.252-11.847,5.343-19.048,5.343-19.048"/>
		<path style="fill:none;stroke:#263238;stroke-linecap:round;stroke-linejoin:round;stroke-miterlimit:10;" d="M57.821,293.653
			c0,0-5.645-18.062-7.504-28.98c-1.858-10.918,0.232-19.048,1.162-23.927"/>
		<path style="fill:none;stroke:#263238;stroke-linecap:round;stroke-linejoin:round;stroke-miterlimit:10;" d="M79.158,323.327
			c0,0,3.449-6.156,8.56-12.195c5.11-6.04,9.06-9.292,11.383-15.099"/>
		<path style="fill:none;stroke:#263238;stroke-linecap:round;stroke-linejoin:round;stroke-miterlimit:10;" d="M57.751,324.141
			c0,0-1.858-11.151-6.272-16.958c-4.414-5.807-13.241-14.867-16.725-20.674"/>
		<path style="fill:none;stroke:#263238;stroke-linecap:round;stroke-linejoin:round;stroke-miterlimit:10;" d="M82.223,351.53
			c0,0,7.817-5.089,13.392-7.877"/>
		<path style="fill:#263238;stroke:#263238;stroke-linecap:round;stroke-linejoin:round;stroke-miterlimit:10;" d="M57.733,413.077
			c-3.625,0-6.645-2.769-6.947-6.382c-1.155-13.795-3.578-44.791-2.327-46.317c5.119-6.242,27.171-6.242,32.289,0
			c1.251,1.525-1.172,32.522-2.327,46.316c-0.303,3.612-3.322,6.382-6.947,6.382H57.733z"/>
	</g>
</g>
<g id="Chair">
	<g>
		
			<rect x="181.368" y="295.188" style="fill:#263238;stroke:#263238;stroke-linecap:round;stroke-linejoin:round;stroke-miterlimit:10;" width="5.42" height="21.68"/>
		
			<rect x="265.038" y="295.188" style="fill:#263238;stroke:#263238;stroke-linecap:round;stroke-linejoin:round;stroke-miterlimit:10;" width="5.42" height="21.68"/>
		<path style="fill:#ABABAB;stroke:#263238;stroke-linecap:round;stroke-linejoin:round;stroke-miterlimit:10;" d="M263.941,326.195
			h-77.915v-94.619c0-3.981,3.228-7.209,7.209-7.209h63.498c3.981,0,7.209,3.227,7.209,7.209V326.195z"/>
		<g>
			
				<circle style="fill:#FFFFFF;stroke:#263238;stroke-linecap:round;stroke-linejoin:round;stroke-miterlimit:10;" cx="189.498" cy="409.012" r="4.065"/>
			<path style="fill:#FFFFFF;stroke:#263238;stroke-linecap:round;stroke-linejoin:round;stroke-miterlimit:10;" d="
				M229.131,409.012c0-2.245-1.82-4.065-4.065-4.065c-2.245,0-4.065,1.82-4.065,4.065s1.82,4.065,4.065,4.065
				C227.311,413.077,229.131,411.257,229.131,409.012z"/>
			<path style="fill:#FFFFFF;stroke:#263238;stroke-linecap:round;stroke-linejoin:round;stroke-miterlimit:10;" d="
				M264.699,409.012c0-2.245-1.82-4.065-4.065-4.065c-2.245,0-4.065,1.82-4.065,4.065s1.82,4.065,4.065,4.065
				C262.88,413.077,264.699,411.257,264.699,409.012z"/>
		</g>
		<polygon style="fill:#263238;stroke:#263238;stroke-linecap:round;stroke-linejoin:round;stroke-miterlimit:10;" points="
			228.736,388.599 228.736,321.622 221.6,321.622 221.6,388.167 221.34,388.349 184.417,403.254 184.417,407.657 190.176,407.657 
			190.176,404.608 222.171,399.903 222.763,407.657 227.031,407.657 227.619,399.953 259.28,404.608 259.28,407.657 
			265.038,407.657 265.038,403.254 		"/>
		
			<rect x="213.65" y="329.028" style="fill:#263238;stroke:#263238;stroke-linecap:round;stroke-linejoin:round;stroke-miterlimit:10;" width="22.666" height="8.028"/>
		<path style="fill:#ABABAB;stroke:#263238;stroke-linecap:round;stroke-linejoin:round;stroke-miterlimit:10;" d="M267.578,329.5
			h-85.189c-1.512,0-2.738-1.226-2.738-2.738v-12.468c0-1.512,1.226-2.738,2.738-2.738h85.189c1.512,0,2.738,1.226,2.738,2.738
			v12.468C270.316,328.275,269.09,329.5,267.578,329.5z"/>
		<path style="fill:#ABABAB;stroke:#263238;stroke-linecap:round;stroke-linejoin:round;stroke-miterlimit:10;" d="M183.836,299.253
			h-6.63c-1.256,0-2.274-1.018-2.274-2.274v-12.05c0-1.256,1.018-2.274,2.274-2.274h6.63c1.256,0,2.274,1.018,2.274,2.274v12.05
			C186.111,298.235,185.092,299.253,183.836,299.253z"/>
		<path style="fill:#ABABAB;stroke:#263238;stroke-linecap:round;stroke-linejoin:round;stroke-miterlimit:10;" d="M272.418,299.253
			h-6.63c-1.256,0-2.274-1.018-2.274-2.274v-12.05c0-1.256,1.018-2.274,2.274-2.274h6.63c1.256,0,2.274,1.018,2.274,2.274v12.05
			C274.693,298.235,273.674,299.253,272.418,299.253z"/>
	</g>
</g>
<g id="Table">
	<g>
		<g>
			
				<rect x="102.856" y="285.704" transform="matrix(-1 -1.224647e-16 1.224647e-16 -1 446.2133 594.8105)" style="fill:#FFFFFF;stroke:#263238;stroke-linecap:round;stroke-linejoin:round;stroke-miterlimit:10;" width="240.5" height="23.402"/>
			
				<rect x="102.856" y="285.704" transform="matrix(-1 -1.224647e-16 1.224647e-16 -1 446.2133 577.6331)" style="fill:#263238;stroke:#263238;stroke-linecap:round;stroke-linejoin:round;stroke-miterlimit:10;" width="240.5" height="6.225"/>
			<polygon style="fill:#FFFFFF;stroke:#263238;stroke-linecap:round;stroke-linejoin:round;stroke-miterlimit:10;" points="
				340.816,413.077 344.226,413.077 345.363,285.37 339.679,285.37 			"/>
			<polygon style="fill:#FFFFFF;stroke:#263238;stroke-linecap:round;stroke-linejoin:round;stroke-miterlimit:10;" points="
				101.653,413.077 105.063,413.077 106.2,285.37 100.516,285.37 			"/>
			
				<rect x="97.348" y="282.295" transform="matrix(-1 -1.224647e-16 1.224647e-16 -1 446.1585 569.8716)" style="fill:#FFFFFF;stroke:#263238;stroke-linecap:round;stroke-linejoin:round;stroke-miterlimit:10;" width="251.463" height="5.282"/>
		</g>
		<g>
			
				<rect x="192.84" y="279.49" transform="matrix(-1 -1.224647e-16 1.224647e-16 -1 461.3417 562.1028)" style="fill:#FFFFFF;stroke:#263238;stroke-linecap:round;stroke-linejoin:round;stroke-miterlimit:10;" width="75.662" height="3.124"/>
			<g>
				
					<rect x="251.497" y="206.975" transform="matrix(-1 -1.224647e-16 1.224647e-16 -1 594.024 475.2926)" style="fill:#263238;stroke:#263238;stroke-linecap:round;stroke-linejoin:round;stroke-miterlimit:10;" width="91.03" height="61.342"/>
				
					<rect x="271.149" y="279.156" transform="matrix(-1 -1.224647e-16 1.224647e-16 -1 579.143 561.7697)" style="fill:#ABABAB;stroke:#263238;stroke-linecap:round;stroke-linejoin:round;stroke-miterlimit:10;" width="36.845" height="3.457"/>
				
					<rect x="286.03" y="242.899" transform="matrix(-1 -1.224647e-16 1.224647e-16 -1 594.024 525.5123)" style="fill:#ABABAB;stroke:#263238;stroke-linecap:round;stroke-linejoin:round;stroke-miterlimit:10;" width="21.964" height="39.714"/>
			</g>
		</g>
	</g>
</g>
<g id="Lines">
	<g>
		<line style="fill:none;stroke:#263238;stroke-miterlimit:10;" x1="217.688" y1="74.018" x2="227.949" y2="76.583"/>
		<line style="fill:none;stroke:#263238;stroke-miterlimit:10;" x1="234.361" y1="53.498" x2="237.354" y2="60.338"/>
		<line style="fill:none;stroke:#263238;stroke-miterlimit:10;" x1="295.066" y1="74.018" x2="284.806" y2="76.583"/>
		<line style="fill:none;stroke:#263238;stroke-miterlimit:10;" x1="278.394" y1="53.498" x2="275.401" y2="60.338"/>
		<line style="fill:none;stroke:#263238;stroke-miterlimit:10;" x1="257.019" y1="44.52" x2="257.019" y2="53.07"/>
	</g>
</g>
<g id="Character_3">
	<g>
		<path style="fill:#FFFFFF;stroke:#263238;stroke-miterlimit:10;" d="M266.076,93.352l-2.092-12.944c0,0-1.046-8.76-1.046-11.636
			c0-2.877-1.046-3.138-1.438-2.615l-1.177,0.654c0,0-0.392-3.399-1.438-2.354c-1.046,1.046-1.177,2.484-1.177,2.484
			s-1.177,2.092-1.7,4.707c-0.218,1.091-0.39,2.841-0.517,4.54l-0.659-0.879c0,0-0.392-4.315-0.523-5.23
			c-0.131-0.915-1.569,0.131-1.7,3.399c-0.102,2.552,1.389,9.087,2.048,11.831c-0.352,2.936-0.662,6.602-0.218,8.304
			c0.785,3.007,2.353,4.968,2.876,5.753c0.523,0.785,3.661,9.283,3.661,9.283l9.414-4.184L266.076,93.352z"/>
		<path style="fill:#FFFFFF;stroke:#263238;stroke-miterlimit:10;" d="M262.546,88.122c0,0-2.746-5.099-3.269-6.014
			c-0.523-0.915-3.661-4.707-4.445-6.799c-0.785-2.092-2.615,0.784-1.831,3.007c0.785,2.223,3.923,6.276,3.923,6.276
			s-1.046,3.53,0.392,6.537c1.438,3.007,4.315,4.315,4.315,4.315"/>
		<path style="fill:none;stroke:#263238;stroke-miterlimit:10;" d="M260.323,66.81c0,0-0.915,10.198-0.523,14.121"/>
		<path style="fill:none;stroke:#263238;stroke-miterlimit:10;" d="M257.708,66.941c0,0-0.915,8.106-0.392,11.506"/>
		<path style="fill:#92E3A9;stroke:#263238;stroke-miterlimit:10;" d="M335.302,160.413c0,0-16.107-5.61-17.193-5.61
			c-1.086,0-12.356-0.808-12.356-0.808l-13.343-6.974l-21.5-43.649l-12.669,6.153c0,0,4.525,23.347,8.144,36.197
			c3.62,12.85,7.75,20.25,7.75,20.25l28.772,21.409l1.448,1.991L335.302,160.413z"/>
		<path style="fill:#92E3A9;stroke:#263238;stroke-miterlimit:10;" d="M289.694,213.26c0,0-5.973,26.062-5.973,39.997
			c0,13.936,0.362,17.555,1.267,18.098c0.905,0.543,11.221,2.353,12.126,2.172s3.62-1.086,3.62-1.086s13.212-62.62,14.66-70.403
			c1.448-7.782,3.439-24.795,3.439-24.795s-15.203,13.031-19.365,17.555c-4.163,4.525-3.801,4.706-5.611,8.144
			C292.047,206.383,289.694,213.26,289.694,213.26z"/>
		<path style="fill:#FFFFFF;stroke:#263238;stroke-miterlimit:10;" d="M296.589,412.325c0,0-4.854,8.019-5.698,8.863
			c-0.844,0.844-8.23,5.276-10.34,5.909c-2.11,0.633-4.432,1.899-4.432,4.01c0,2.11,6.964,3.165,10.551,3.165
			c3.587,0,14.139-0.633,15.405-0.633c1.266,0,3.587-0.211,4.643,0c1.055,0.211,6.331,1.055,7.808,0.422
			c1.477-0.633,2.743-5.909,2.321-8.23c-0.422-2.321-1.688-7.597-1.688-7.597L296.589,412.325z"/>
		<path style="fill:#FFFFFF;stroke:#263238;stroke-miterlimit:10;" d="M361.163,420.344l-3.587,5.909c0,0-4.725,4.248-7.386,5.909
			c-6.467,4.037,2.747,6.406,6.964,6.12c2.955-0.201,8.441-0.211,10.129-1.055c1.688-0.844,8.652-5.487,11.395-7.597
			c2.743-2.11,2.954-4.432,2.532-7.175c-0.422-2.743-2.321-6.964-2.321-6.964s-11.184-3.587-14.35-1.055
			C361.374,416.968,361.163,420.344,361.163,420.344z"/>
		<path style="fill:#263238;stroke:#263238;stroke-miterlimit:10;" d="M299.285,266.335l-4.791,25.151
			c0,0-8.384,52.457-8.144,54.374c0.24,1.916,10.309,56.099,10.548,58.254s-2.156,4.312-2.156,4.312l0.479,5.27
			c0,0,5.988,4.072,10.06,5.03c4.072,0.958,10.3,1.198,10.3,1.198s2.156-4.551,2.156-5.27c0-0.719-1.437-5.509-1.437-6.228
			c0-0.719-3.841-64.003-3.841-64.003l9.342-36.169c0,0,12.695,38.325,13.893,40.96c1.198,2.635,24.299,61.181,24.299,61.181
			s-2.156,2.874-1.437,5.03c0.719,2.156,1.677,6.228,1.677,6.228s5.27-5.988,7.905-4.072c2.635,1.916,3.114,4.072,3.114,4.072
			l8.384-3.353c0,0,0.719-3.354,0.24-5.03c-0.479-1.677-1.677,0.479-1.677-5.749c0-6.228-8.25-43.456-9.927-49.205
			c-1.677-5.749-8.623-16.528-8.623-16.528l-3.114-57.966v-13.414L299.285,266.335z"/>
		<path style="fill:#FFFFFF;stroke:#263238;stroke-miterlimit:10;" d="M339.572,163.334c0,0-6.179-1.956-8.696-0.838
			c-2.517,1.119-23.252,23.127-23.531,24.526c-0.28,1.398-10.561,70.279-12.24,75.592c-1.678,5.314,7.551,12.025,7.551,12.025
			l5.593,2.517l4.754-5.593l-0.28,6.712c0,0,14.542,0.28,19.017-0.28c4.475-0.559,21.814-5.034,21.814-5.034
			s3.636-60.407,3.915-61.526c0.28-1.119,3.076-39.432,3.076-39.432l-5.314-3.356L339.572,163.334z"/>
		<path style="fill:#FFFFFF;stroke:#263238;stroke-miterlimit:10;" d="M339.489,180.056l3.911,7.821c0,0,11.36-12.291,12.663-15.27
			c1.303-2.98,2.421-3.166,1.676-5.028c-0.745-1.862-2.607-3.724-2.607-3.724s-17.319-0.559-19.553,0.559
			c-2.235,1.117-8.38,15.084-8.753,16.015c-0.372,0.931-0.372,0.931-0.372,0.931l11.732-2.049L339.489,180.056z"/>
		<path style="fill:#92E3A9;stroke:#263238;stroke-miterlimit:10;" d="M334.216,164.938c0,0-38.369,35.654-40.359,38.007
			c-1.991,2.353-4.163,10.316-4.163,10.316s3.439-15.203,4.706-17.555c1.267-2.353,28.414-30.224,28.414-30.224l7.239-5.068
			l7.42,1.81L334.216,164.938z"/>
		<g>
			<path style="fill:#FFFFFF;stroke:#263238;stroke-miterlimit:10;" d="M338.371,116.926c0,0-7.635,8.008-7.449,9.497
				c0.186,1.49-0.186,3.538-0.186,3.538s-8.008,6.518-8.753,6.704c-0.745,0.186-0.745,1.49-0.186,2.607
				c0.559,1.117,1.49,1.303,1.862,2.235c0.372,0.931,0.186,3.538-1.304,8.753c-1.49,5.214-2.235,5.959-0.745,6.89
				c1.49,0.931,12.291,4.656,12.291,4.656s0.372,15.643,1.117,17.878c0.745,2.235,4.469,0.372,4.469,0.372l15.643-14.898v-2.607
				l12.291-14.712c0,0,3.352-12.105-0.372-17.878c-3.725-5.773-23.278-13.967-23.837-14.153
				C342.654,115.622,340.047,115.25,338.371,116.926z"/>
			<path style="fill:#263238;stroke:#263238;stroke-miterlimit:10;" d="M351.966,112.27c0,0,3.166-1.862,1.117-2.793
				c-2.049-0.931-4.283-0.186-4.842,0c-0.559,0.186,0.559-5.587-2.607-3.911s-7.263,5.773-8.194,8.566
				c-0.931,2.793,1.862,8.194,4.283,8.566c2.421,0.373,7.821,2.235,7.821,2.235s1.49,1.117,0.559,3.166
				c-0.931,2.049-6.332,6.145-5.587,7.263c0.745,1.117,2.607,3.724,2.607,3.724s-1.862,3.352-1.49,4.283
				c0.372,0.931,1.49,1.304,1.49,1.304s3.352-2.049,6.145-1.304s1.676,5.4,0.559,7.449c-1.117,2.048-2.607,4.469-2.607,4.469
				s3.166,7.263,3.911,7.263s9.87-9.125,13.781-13.222c3.911-4.097,5.587-11.173,4.656-17.133
				c-0.931-5.959-10.801-13.967-13.967-15.829C356.435,114.505,351.966,112.27,351.966,112.27z"/>
			<path style="fill:none;stroke:#263238;stroke-miterlimit:10;" d="M325.708,133.128c-1.676-1.117-0.372-6.332,1.117-6.89
				c1.49-0.559,3.911,3.725,3.911,3.725s8.008,6.145,8.194,7.263c0.186,1.117-4.283,4.469-6.704,4.656
				c-2.421,0.186-3.352,0.186-3.352-3.352c0-3.538,1.304-5.959,1.304-5.959"/>
			<line style="fill:none;stroke:#263238;stroke-miterlimit:10;" x1="338.93" y1="137.224" x2="348.986" y2="144.115"/>
			<path style="fill:none;stroke:#263238;stroke-miterlimit:10;" d="M334.088,129.962c0,0,3.724,0.372,5.214,3.724"/>
			<path style="fill:none;stroke:#263238;stroke-miterlimit:10;" d="M325.336,146.163c0,0,3.352,1.49,7.263,0"/>
			<path style="fill:none;stroke:#263238;stroke-miterlimit:10;" d="M351.221,155.288c0,0-3.911,0.931-5.773,0"/>
			<polygon style="fill:#263238;stroke:#263238;stroke-miterlimit:10;" points="333.902,161.806 340.978,161.434 334.088,167.951 
							"/>
		</g>
		<path style="fill:#92E3A9;stroke:#263238;stroke-miterlimit:10;" d="M357.739,167.579c0,0-3.749,6.447-7.4,19.322
			c-3.651,12.876-7.495,51.887-7.495,56.115c0,4.228,9.801,54.962,10.57,56.884c0.769,1.922,5.573,2.114,5.573,2.114
			s14.221-9.609,14.99-12.299c0.769-2.69-9.032-47.852-9.032-47.852s17.872-58.421,16.719-59.19
			C380.51,181.905,357.739,167.579,357.739,167.579z"/>
		<path style="fill:none;stroke:#263238;stroke-miterlimit:10;" d="M364.367,174.026c0,0-11.915,47.659-14.797,55.923
			c-2.883,8.264-6.726,13.068-6.726,13.068"/>
		<g>
			<g>
				<path style="fill:#FFFFFF;stroke:#263238;stroke-miterlimit:10;" d="M360.391,293.782c0,0-1.798,2.766-2.766,3.872
					c-0.968,1.106-3.595,2.351-2.351,3.181c1.245,0.83,4.564-0.691,5.393-1.936L360.391,293.782z"/>
				<g>
					<path style="fill:#FFFFFF;stroke:#263238;stroke-miterlimit:10;" d="M367.925,283.049c0,0-7.257,6.999-7.672,7.69
						c-0.415,0.691-0.83,6.5-0.83,8.159c0,1.66,1.106,2.628,1.659,2.766c0.553,0.138,1.66,0.138,1.66,0.138l1.798-0.277
						c0,0,1.659-0.138,3.319,0.277c1.659,0.415,4.978,0.415,5.808-0.415c0.83-0.83,1.659-2.904,1.659-2.904s0.968-1.106,1.245-2.766
						c0.277-1.659,1.936-9.957,1.936-9.957S366.747,281.72,367.925,283.049z"/>
					<line style="fill:none;stroke:#263238;stroke-miterlimit:10;" x1="362.742" y1="301.803" x2="363.987" y2="294.059"/>
					<line style="fill:none;stroke:#263238;stroke-miterlimit:10;" x1="366.338" y1="301.388" x2="367.721" y2="294.75"/>
					<line style="fill:none;stroke:#263238;stroke-miterlimit:10;" x1="370.487" y1="301.665" x2="371.731" y2="295.442"/>
				</g>
			</g>
			<path style="fill:#92E3A9;stroke:#263238;stroke-miterlimit:10;" d="M381.663,182.673c0,0,19.591,43.331,22.281,50.057
				c2.69,6.726,0.577,9.165,0,10.895c-0.577,1.73-22.759,43.652-22.759,43.652l-13.26-4.228l13.661-43.947l-10.108-19.147
				L381.663,182.673z"/>
		</g>
	</g>
</g>
<g id="Character_2">
	<g>
		<g>
			<path style="fill:#FFFFFF;stroke:#263238;stroke-miterlimit:10;" d="M275.292,107.09c0,0,0.134-5.244,1.076-8.338
				c0.941-3.093,0.269-4.438-0.404-4.169c-0.672,0.269-1.479,0.403-1.883,2.824c-0.403,2.421-0.538,3.631-0.538,5.11
				C273.544,103.997,275.292,107.09,275.292,107.09z"/>
			<path style="fill:#FFFFFF;stroke:#263238;stroke-miterlimit:10;" d="M260.763,91.809c0.241-0.422,1.77,1.226,2.83,2.204
				c-0.421-0.865-0.53-0.913-1.211-2.388c-0.807-1.748-0.659-2.758-0.538-3.227c0.359-1.399,3.234,1.713,4.07,3.329
				c-0.428-1.296-1.313-4-1.515-4.808c-0.269-1.076-0.134-2.555,0.672-3.093c0.807-0.538,2.017,2.286,2.017,2.286
				s1.748,0.807,2.421,2.152c0.672,1.345,4.572,9.144,4.572,9.144l0.403,6.455l4.169,15.868l9.682,13.448l-10.681,5.187
				l-6.263-14.869c0,0-1.614-1.345-2.824-3.228c-0.882-1.371-1.69-6.448-2.169-10.562c-0.242-0.675-0.588-1.778-0.823-3.143
				c-0.395-2.288-1.104-7.653-1.104-7.653s-2.051-2.446-3.156-4.103C260.665,93.831,260.448,92.361,260.763,91.809z"/>
			<path style="fill:none;stroke:#263238;stroke-miterlimit:10;" d="M266.148,92.432c0,0,1.838,2.884,2.505,4.506
				c0.552,1.341,1.026,3.314,1.026,3.314"/>
			<path style="fill:none;stroke:#263238;stroke-miterlimit:10;" d="M267.089,86.112c0,0,3.496,8.203,4.303,9.413
				c0.807,1.21,1.21,3.765,1.21,4.438"/>
			<path style="fill:none;stroke:#263238;stroke-miterlimit:10;" d="M263.594,94.013c0,0,2.614,2.451,2.929,3.161
				c0.316,0.71,1.341,4.576,1.341,4.576"/>
		</g>
		<g>
			<path style="fill:#FFFFFF;stroke:#263238;stroke-miterlimit:10;" d="M348.312,367.335c0,0,1.363,18.915-0.511,28.117
				c-1.875,9.202-8.691,22.835-9.372,24.709c-0.682,1.875-6.475,22.835-6.305,23.686c0.17,0.852,4.26,8.18,3.749,11.758
				c-0.511,3.579-1.363,4.601-2.897,4.942c-1.534,0.341-8.861,0.17-13.803,4.26c-4.942,4.09-12.269,3.238-14.825,3.067
				c-2.556-0.17-9.202-0.17-9.543-1.534c-0.341-1.363,3.578-4.431,5.623-5.283c2.045-0.852,7.498-5.453,9.031-6.987
				c1.534-1.534,7.327-9.032,8.52-11.928c1.193-2.897,4.601-47.202,5.623-54.019c1.023-6.816,1.704-14.485,1.534-18.745
				c-0.17-4.26,0.852-6.646,0.852-6.646L348.312,367.335z"/>
			<path style="fill:#92E3A9;stroke:#263238;stroke-miterlimit:10;" d="M300.428,461.058c0.757-0.315,1.983-1.146,3.303-2.144
				c1.428,0.642,3.432,1.463,4.365,1.463c1.534,0,12.781-7.498,16.7-9.713c3.175-1.795,7.69-2.247,9.291-2.354
				c1.042,2.475,2.055,5.406,1.785,7.296c-0.511,3.579-1.363,4.601-2.897,4.942c-1.534,0.341-8.861,0.17-13.803,4.26
				c-4.942,4.09-12.269,3.238-14.825,3.067c-2.556-0.17-9.202-0.17-9.543-1.534C294.464,464.977,298.383,461.91,300.428,461.058z"/>
		</g>
		<path style="fill:#FFFFFF;stroke:#263238;stroke-miterlimit:10;" d="M404.093,362.307c0,0,6.01,10.417,8.614,20.634
			c2.604,10.217,2.204,53.889,2.604,54.69c0.401,0.801,4.007,9.215,5.81,12.821c1.803,3.606,6.21,9.015,6.21,10.618
			c0,1.603-3.205,1.603-3.806,1.603s-11.018,0-11.018,0s-3.005-1.002-3.606-2.204c-0.601-1.202-1.002-6.411-2.404-8.013
			c-1.402-1.603-4.808-5.81-5.008-8.013c-0.2-2.204,1.202-9.015,1.202-10.618c0-1.603-4.407-19.432-5.81-24.04
			c-1.402-4.608-8.414-16.627-9.215-26.644s-1.603-14.424-1.603-14.424L404.093,362.307z"/>
		<g>
			<path style="fill:#92E3A9;stroke:#263238;stroke-miterlimit:10;" d="M411.028,435.449c2.267,0.664,4.263,3.065,5.383,4.644
				c1.312,2.977,3.45,7.839,4.71,10.359c1.803,3.606,6.21,9.015,6.21,10.618c0,1.603-3.205,1.603-3.806,1.603s-11.018,0-11.018,0
				s-3.005-1.002-3.606-2.204c-0.601-1.202-1.002-6.411-2.404-8.013c-1.402-1.603-4.808-5.81-5.008-8.013
				c-0.119-1.309,0.327-4.24,0.709-6.743C402.82,437.075,406.173,434.028,411.028,435.449z"/>
			<path style="fill:#263238;stroke:#263238;stroke-miterlimit:10;" d="M423.525,462.672c-0.601,0-11.018,0-11.018,0
				s-3.005-1.002-3.606-2.204c-0.601-1.202-1.002-6.411-2.404-8.013c-1.181-1.35-3.777-4.544-4.688-6.836l0.538-0.568
				c0,0,5.393-4.341,9.339-1.973c3.946,2.368,4.999,7.892,7.498,10.655c2.499,2.762,6.692,4.807,8.147,7.336
				C427.331,462.672,424.126,462.672,423.525,462.672z"/>
		</g>
		<g>
			<g>
				<path style="fill:#92E3A9;stroke:#263238;stroke-miterlimit:10;" d="M407.865,200.991c0,0,6.241,34.159,6.428,35.283
					s5.245,17.794,4.495,21.54c-0.749,3.746-16.295,35.4-16.295,35.4s-3.933-6.556-4.495-6.93
					c-0.562-0.375,1.498-31.654,1.498-31.654l-6.181-20.041c0,0-0.041-20.43,2.628-24.344
					C398.612,206.329,406.797,199.034,407.865,200.991z"/>
				<path style="fill:none;stroke:#263238;stroke-miterlimit:10;" d="M395.298,238.846c0,0,8.858-2.266,13.802-7.21"/>
				<path style="fill:none;stroke:#263238;stroke-miterlimit:10;" d="M399.417,245.85c0,0,6.798,4.326,13.802,4.326"/>
			</g>
			<path style="fill:#FFFFFF;stroke:#263238;stroke-miterlimit:10;" d="M409.754,278.19c-3.76,7.893-7.262,15.024-7.262,15.024
				s-3.933-6.556-4.495-6.93c-0.205-0.137-0.06-4.402,0.206-9.754C402.731,279.638,406.844,279.265,409.754,278.19z"/>
		</g>
		<path style="fill:#263238;stroke:#263238;stroke-miterlimit:10;" d="M391.847,259.502c0,0,8.737,22.517,12.143,31.331
			c3.406,8.815,3.91,55.847,3.91,55.847l-1.002,17.629c0,0-19.632,9.215-42.069,8.214c-22.437-1.002-41.669-7.412-41.669-7.412
			s0.097-40.822,5.105-54.445s8.614-27.445,8.614-27.445l1.68-21.115L391.847,259.502z"/>
		<g>
			<path style="fill:#92E3A9;stroke:#263238;stroke-miterlimit:10;" d="M402.883,212.023c-0.356,0.89-9.006,29.12-9.006,29.12
				s-2.06,6.743-2.248,7.492c-0.187,0.749,0.375,9.553,0.562,10.302c0.187,0.749,1.563-1.246,1.001,1.376
				c-0.562,2.622-2.997,2.81-4.495,3.559c-1.498,0.749-12.924,4.87-24.911,4.683c-11.987-0.187-25.473-2.622-25.473-2.622
				s-2.06-3.746-2.435-5.432c-0.375-1.686,0.685-5.497,0.685-5.497l-5.032-40.312c0,0-20.848-27.558-23.695-29.515
				c-2.847-1.957-6.584-4.804-7.651-5.694c-1.068-0.89-2.135-2.669-2.847-4.626c-0.712-1.957-19.681-36.492-19.681-36.492
				s4.804-5.16,6.05-5.516c1.245-0.356,4.092-0.712,4.092-0.712l24.663,27.595c0,0,4.804,2.313,5.872,2.847
				c1.068,0.534,0.89,3.559,0.89,3.559l7.503,3.359l25.171,7.951l12.018,2.903c0,0,33.986,12.812,36.121,13.879
				c2.135,1.068,8.007,4.982,7.829,6.762c-0.178,1.779-3.381,9.075-3.381,9.075"/>
			<path style="fill:none;stroke:#263238;stroke-miterlimit:10;" d="M351.272,237.054c5.478,7.334,12.803,16.184,19.005,20.385"/>
			<path style="fill:none;stroke:#263238;stroke-miterlimit:10;" d="M343.117,225.41c0,0,2.589,4.023,6.443,9.321"/>
			<path style="fill:none;stroke:#263238;stroke-miterlimit:10;" d="M377.16,255.866c0.975,0.675,1.936,1.275,2.856,1.76"/>
			<path style="fill:none;stroke:#263238;stroke-miterlimit:10;" d="M364.283,244.328c0,0,5.335,5.78,10.868,10.061"/>
			<path style="fill:none;stroke:#263238;stroke-miterlimit:10;" d="M314.774,167.027c0,0-8.185,9.431-8.007,6.584
				c0.178-2.847-0.712-2.847,1.957-4.982"/>
		</g>
		<g>
			<path style="fill:#FFFFFF;stroke:#263238;stroke-miterlimit:10;" d="M363.159,130.273c0,0-9.987,5.95-10.837,7.862
				c-0.85,1.912-1.275,6.587-2.337,7.65c-1.063,1.063-7.225,2.55-7.012,4.037c0.213,1.487,2.55,5.95,2.55,5.95
				s-0.425,14.237-0.425,15.3s1.275,1.7,2.55,1.912c1.275,0.213,4.25,1.062,4.25,1.062v3.4c0,0,8.287,2.762,9.137,2.762
				s6.375,0.425,6.375,0.425s11.262-7.437,14.875-18.062c3.612-10.625,0-18.912-4.037-23.799
				C374.208,133.886,363.159,130.273,363.159,130.273z"/>
			<path style="fill:#263238;stroke:#263238;stroke-miterlimit:10;" d="M364.859,158.96c0,0,7.012-5.737,8.712-1.063
				c1.7,4.675,0.212,7.225-1.912,8.075c-2.125,0.85-7.225,2.55-7.225,2.55s-4.887,11.262-5.312,15.937
				c-0.425,4.675-3.4,8.287-1.913,11.475c1.487,3.188,3.612,4.462,14.025,5.525c10.412,1.063,22.273-0.468,29.71-3.655
				c7.437-3.187,6.414-14.407,4.927-16.957c-1.488-2.55-8.5-11.475-8.287-16.15c0.212-4.675,6.589-11.873,2.063-24.821
				c-4-11.444-23.525-18.528-28.837-17.89s-9.987,0-9.987,3.4c0,3.4,0.212,6.8,3.825,11.475c3.613,4.675,1.488,8.287,0.638,9.137
				s-3.612,3.612-3.187,7.012C362.521,156.41,364.859,158.96,364.859,158.96z"/>
			<path style="fill:none;stroke:#263238;stroke-miterlimit:10;" d="M352.58,160.221c0,0-0.736,3.192-5.647,2.21"/>
			<path style="fill:none;stroke:#263238;stroke-miterlimit:10;" d="M355.772,143.28c0,0-0.491-2.333-2.946-2.333"/>
			<path style="fill:#263238;" d="M351.552,146.02c-0.484,0.971-0.582,1.905-0.218,2.087c0.364,0.182,1.052-0.458,1.536-1.429
				c0.484-0.971,0.582-1.905,0.218-2.086C352.724,144.41,352.037,145.05,351.552,146.02z"/>
		</g>
	</g>
</g>
<g id="Character_1">
	<g>
		<g>
			<path style="fill:#FFFFFF;stroke:#263238;stroke-miterlimit:10;" d="M148.612,136.117c0,0,0.552-1.103-1.103-2.758
				c-1.655-1.655-9.011-6.253-11.218-7.724c-2.207-1.471-4.781-6.069-13.609-0.736c-8.827,5.333-14.712,14.896-15.815,21.7
				c-1.103,6.804,3.31,15.08,11.586,19.677s14.712,5.333,14.712,5.333l0.92,1.655l26.114-3.862c0,0,4.23-4.414,3.678-6.988
				s-5.149-11.218-5.149-11.218s2.942-4.414,2.023-5.701C159.83,144.209,148.612,136.117,148.612,136.117z"/>
			<path style="fill:#263238;stroke:#263238;stroke-miterlimit:10;" d="M137.762,158.369c0,0-3.678,1.287-5.149,1.839
				c-1.471,0.552-5.701-0.736-7.54-4.414c-1.839-3.678,0.92-7.54,2.942-7.908c2.023-0.368,3.678,0.92,4.781,0.736
				c1.103-0.184,1.103-1.471,1.287-2.575c0.184-1.103-2.942-3.126-2.942-3.126s4.23-4.597,5.333-6.62
				c1.103-2.023-7.54-4.046-7.908-5.701c-0.368-1.655,7.724-4.965,7.724-4.965c-2.207-1.471-4.781-6.069-13.609-0.736
				c-8.827,5.333-14.712,14.896-15.815,21.7c-1.103,6.804,3.31,15.08,11.586,19.677c5.423,3.013,10.042,4.362,12.592,4.938
				l1.936-1.076c0,0,0.92-1.103,3.126-4.414C138.313,162.415,137.762,158.369,137.762,158.369z"/>
			<path style="fill:none;stroke:#263238;stroke-miterlimit:10;" d="M147.324,135.381c0,0-2.391-0.368-4.23,2.942"/>
			<path style="fill:none;stroke:#263238;stroke-miterlimit:10;" d="M158.726,154.875c0,0-3.494,1.471-8.092-2.575"/>
			<path style="fill:#263238;" d="M148.31,140.77c0.64,1.27,0.717,2.522,0.173,2.796c-0.544,0.274-1.504-0.533-2.144-1.803
				c-0.64-1.27-0.717-2.522-0.173-2.796C146.71,138.693,147.67,139.5,148.31,140.77z"/>
		</g>
		<path style="fill:#92E3A9;stroke:#263238;stroke-miterlimit:10;" d="M156.335,171.058c0,0-21.884-1.839-23.171,0.552
			c-1.287,2.391-1.103,7.172-1.103,7.172l24.091-5.517L156.335,171.058z"/>
		<g>
			<path style="fill:#FFFFFF;stroke:#263238;stroke-miterlimit:10;" d="M191.947,160.725c0,0,44.726-48.812,44.997-49.52
				c0.271-0.708,1.623-16.475,1.756-17.571c0.132-1.095-0.216-2.805,1.1-4.498c1.316-1.693,3.833-5.649,3.833-5.649
				s1.991-4.205,2.649-5.051c0.658-0.847,2.296-2.13,3.363-3.298c1.067-1.167,2.661-2.086,3.507-1.428
				c0.847,0.658,1.247,3.419,1.247,3.419s1.116,0.016,1.465,1.725c0.349,1.709-2.399,10.639-2.509,11.552
				c-0.11,0.913-0.944,9.333-1.928,14.401c-0.984,5.068-2.521,8.587-4.042,10.44c-1.521,1.854-17.714,25.457-21.78,29.967
				c-4.065,4.51-20.155,32.52-20.155,32.52L191.947,160.725z"/>
			<path style="fill:none;stroke:#263238;stroke-miterlimit:10;" d="M242.535,85.502c0,0-2.23,6.24-2.334,7.095
				s-0.673,5.56-0.673,5.56"/>
			<path style="fill:none;stroke:#263238;stroke-miterlimit:10;" d="M247.399,77.584c0,0-2.886,8.07-3.212,9.332
				c-0.326,1.262-0.619,2.963-0.619,2.963"/>
			<path style="fill:none;stroke:#263238;stroke-miterlimit:10;" d="M254.397,77.129c0,0-0.865,2.846-2.168,5.726
				c-1.303,2.88-2.469,8.207-2.5,8.464"/>
			<path style="fill:none;stroke:#263238;stroke-miterlimit:10;" d="M251.457,74.17c0,0-3.386,8.617-3.87,10.467
				c-0.484,1.851-1.134,5.07-1.357,5.477"/>
		</g>
		<polygon style="fill:#263238;stroke:#263238;stroke-miterlimit:10;" points="180.111,191.043 207.33,266.056 201.208,274.618 
			194.778,262.597 189.718,236.982 		"/>
		<g>
			<path style="fill:#FFFFFF;stroke:#263238;stroke-miterlimit:10;" d="M121.394,246.375c0,0-2.701,10.805-0.831,12.259
				c1.87,1.454,18.908,6.649,19.323,6.026c0.416-0.623,0.208-7.48-0.208-9.35c-0.415-1.87-3.532-4.363-3.532-4.363L121.394,246.375z
				"/>
			<path style="fill:#92E3A9;stroke:#263238;stroke-miterlimit:10;" d="M126.173,215c0,0-5.402,27.427-4.987,28.466
				c0.415,1.039,14.337,2.701,14.337,2.701L126.173,215z"/>
			<path style="fill:#92E3A9;stroke:#263238;stroke-miterlimit:10;" d="M120.147,238.271c0,0-1.662,8.727,0.416,9.766
				c2.078,1.039,14.545,4.363,15.584,2.909c1.039-1.454-0.416-7.688-0.416-7.688S121.186,236.609,120.147,238.271z"/>
		</g>
		<g>
			<g>
				<path style="fill:#FFFFFF;stroke:#263238;stroke-miterlimit:10;" d="M178.03,443.139c0,0,6.765,5.074,8.698,5.557
					c1.933,0.483,8.698,2.658,9.423,3.866c0.725,1.208,0,5.074-0.967,6.524c-0.966,1.45-14.739,3.624-21.262,2.899
					c-6.524-0.725-20.779,2.658-22.229-1.933c-1.45-4.591,0.967-11.356,0.967-11.356S173.681,444.106,178.03,443.139z"/>
				<path style="fill:#FFFFFF;stroke:#263238;stroke-miterlimit:10;" d="M191.077,457.878c-2.658,0.725-13.289,1.208-25.853,1.691
					c-7.999,0.308-12.071-1.244-13.981-2.413c0.034,1.004,0.166,1.992,0.451,2.896c1.45,4.591,15.705,1.208,22.229,1.933
					c6.524,0.725,20.296-1.45,21.262-2.9c0.384-0.576,0.729-1.536,0.96-2.557C194.431,456.98,192.397,457.518,191.077,457.878z"/>
			</g>
			<g>
				<path style="fill:#FFFFFF;stroke:#263238;stroke-miterlimit:10;" d="M89.356,428.642c0,0-5.799,12.081-4.832,14.739
					c0.966,2.658,3.866,3.141,6.524,4.107s9.423,0.725,11.356,1.933c1.933,1.208,11.114,5.316,15.463,6.04
					c4.349,0.725,8.94-1.208,9.423-3.141c0.483-1.933-7.007-7.732-9.906-9.665c-2.899-1.933-7.49-8.698-7.49-8.698L89.356,428.642z"
					/>
				<path style="fill:#FFFFFF;stroke:#263238;stroke-miterlimit:10;" d="M99.021,446.28c-5.378-1.291-12.845-4.489-14.423-5.177
					c-0.2,0.987-0.251,1.791-0.074,2.278c0.966,2.658,3.866,3.141,6.524,4.107c2.658,0.966,9.423,0.725,11.356,1.933
					c1.933,1.208,11.114,5.316,15.463,6.04c4.349,0.725,8.94-1.208,9.423-3.141c0.096-0.385-0.133-0.927-0.57-1.557
					c-2.017,1.222-4.767,2.63-6.921,2.765C115.934,453.771,105.062,447.73,99.021,446.28z"/>
			</g>
			<path style="fill:#263238;stroke:#263238;stroke-miterlimit:10;" d="M137.21,275.513c0,0-5.329,20.505-5.57,26.304
				c-0.242,5.799,0.242,11.598,0.242,11.598s-3.866,2.899-3.141,5.315c0.725,2.416,1.933,4.108,1.933,4.108
				s-9.181,35.034-10.39,36.726c-1.208,1.691-14.014,21.504-17.396,28.269c-3.383,6.765-11.356,35.011-11.356,35.011
				s-1.691,1.691-1.933,3.383c-0.242,1.691-0.725,4.591-0.725,4.591s2.658,5.316,9.906,6.282c7.248,0.966,11.114-0.483,11.114-0.483
				s1.208-1.691,1.691-4.108c0.483-2.416,1.208-6.282,1.208-6.282l13.531-23.437l22.47-41.293l6.765-19.329
				c0,0,3.141,28.511,2.899,29.719c-0.242,1.208-6.524,22.931-6.524,33.562c0,10.631,0.725,32.86,0.725,32.86
				s-1.933,3.383-1.45,5.315c0.483,1.933,0.483,1.933,0.483,1.933l0.967,3.141c0,0,9.423-0.242,13.772-0.966
				c4.349-0.725,11.598-4.591,11.598-4.591s0.725-3.383,0-4.591c-0.725-1.208-1.691-2.416-1.933-3.624
				c-0.242-1.208-0.967-4.107-0.242-7.49c0.725-3.383,8.215-54.099,11.114-66.905c2.899-12.806,3.624-54.122,3.383-61.612
				c-0.242-7.49-1.208-12.806-1.208-12.806l0.483-8.698c0,0-13.53-5.799-25.128-6.524c-11.598-0.725-25.611,1.45-25.611,1.45
				L137.21,275.513z"/>
			<polyline style="fill:none;stroke:#8F8F8F;stroke-miterlimit:10;" points="141.787,314.622 150.727,329.119 154.593,340.475 			
				"/>
			<path style="fill:none;stroke:#8F8F8F;stroke-miterlimit:10;" d="M158.35,314.239c1.688-1.5,3.361-3.111,3.975-3.724
				c1.208-1.208,2.899-17.88,3.141-18.605"/>
			<path style="fill:none;stroke:#8F8F8F;stroke-miterlimit:10;" d="M140.579,294.085c0,0,0,12.564,1.45,15.222
				c1.45,2.658,10.873,8.457,12.322,7.973"/>
			<path style="fill:none;stroke:#263238;stroke-miterlimit:10;" d="M143.237,288.528c0,0,13.047-2.175,21.504,0.725"/>
			<path style="fill:none;stroke:#8F8F8F;stroke-miterlimit:10;" d="M175.522,352.719c0.32,7.09,0.607,17.074-0.15,19.65
				c-1.208,4.107-1.933,4.832-2.658,6.765c-0.725,1.933,0.242,4.107-0.242,5.316c-0.483,1.208-1.933,22.447-3.141,28.005
				c-1.208,5.557-1.45,17.638-1.45,17.638"/>
			<path style="fill:none;stroke:#8F8F8F;stroke-miterlimit:10;" d="M179.721,281.038c0,0-1.691,21.262-2.416,28.027
				c-0.725,6.765-3.141,17.155-2.899,21.504c0.242,4.349,0.725,14.739,0.725,14.739s0.059,0.934,0.143,2.458"/>
			<path style="fill:none;stroke:#263238;stroke-miterlimit:10;" d="M168.365,433.233v5.557c0,0,1.933,0.483,1.45,2.416
				c-0.483,1.933-2.175,3.383-2.175,3.383"/>
		</g>
		<path style="fill:#92E3A9;stroke:#263238;stroke-miterlimit:10;" d="M132.061,178.782c0,0-7.908,8.643-9.931,18.574
			c-2.023,9.931,4.781,23.355,4.781,23.355l11.402,42.113c0,0-3.31,2.575-3.494,4.781s0.736,7.356,2.391,7.908
			c1.655,0.552,27.401,0.368,27.401,0.368s25.562,4.597,26.114,4.597s3.494-2.575,3.494-5.517c0-2.942-0.552-7.172-0.736-9.011
			c-0.184-1.839-7.54-50.205-8.275-53.515s-0.999-16.387-0.999-16.387l15.405-11.425l2.633-3.386l-11.777-19.023
			c0,0-18.87,4.614-19.79,5.35C169.76,168.299,132.061,178.782,132.061,178.782z"/>
		<path style="fill:#92E3A9;stroke:#263238;stroke-miterlimit:10;" d="M186.122,164.466c0,0,12.452,22.624,13.205,22.53
			c0.752-0.094,7.667-5.185,8.164-6.237c0.498-1.051-0.333-3.375-0.333-3.375s-12.954-16.943-14.122-18.01
			c-1.168-1.067-2.512-0.674-2.965,0.012C189.617,160.073,185.286,160.66,186.122,164.466z"/>
		<line style="fill:none;stroke:#263238;stroke-miterlimit:10;" x1="184.209" y1="196.048" x2="159.99" y2="214.129"/>
		<path style="fill:none;stroke:#263238;stroke-miterlimit:10;" d="M155.872,241.298c-1.246,2.171-2.539,4.176-3.867,5.923"/>
		<path style="fill:none;stroke:#263238;stroke-miterlimit:10;" d="M168.329,212.044c0,0-2.95,11.205-10.834,26.287"/>
		<path style="fill:none;stroke:#263238;stroke-miterlimit:10;" d="M159.553,242.189c0,0-8.946,13.419-13.139,17.053"/>
	</g>
</g>
</svg>
