<svg width="16" height="16" viewBox="0 0 16 16" fill="none" xmlns="http://www.w3.org/2000/svg">
<path d="M4.33334 13.3334C3.32223 13.3334 2.45834 12.9834 1.74167 12.2834C1.02501 11.5834 0.666672 10.7278 0.666672 9.71669C0.666672 8.85002 0.927783 8.0778 1.45001 7.40002C1.97223 6.72224 2.65556 6.28891 3.50001 6.10002C3.77778 5.0778 4.33334 4.25002 5.16667 3.61669C6 2.98335 6.94445 2.66669 8 2.66669C9.3 2.66669 10.4028 3.11946 11.3083 4.02502C12.2139 4.93058 12.6667 6.03335 12.6667 7.33335C13.4333 7.42224 14.0694 7.7528 14.575 8.32502C15.0806 8.89724 15.3333 9.56669 15.3333 10.3334C15.3333 11.1667 15.0417 11.875 14.4583 12.4584C13.875 13.0417 13.1667 13.3334 12.3333 13.3334H8.66667C8.3 13.3334 7.98612 13.2028 7.725 12.9417C7.46389 12.6806 7.33334 12.3667 7.33334 12V8.56669L6.26667 9.60002L5.33334 8.66669L8 6.00002L10.6667 8.66669L9.73334 9.60002L8.66667 8.56669V12H12.3333C12.8 12 13.1944 11.8389 13.5167 11.5167C13.8389 11.1945 14 10.8 14 10.3334C14 9.86669 13.8389 9.47224 13.5167 9.15002C13.1944 8.8278 12.8 8.66669 12.3333 8.66669H11.3333V7.33335C11.3333 6.41113 11.0083 5.62502 10.3583 4.97502C9.70834 4.32502 8.92223 4.00002 8 4.00002C7.07778 4.00002 6.29167 4.32502 5.64167 4.97502C4.99167 5.62502 4.66667 6.41113 4.66667 7.33335H4.33334C3.68889 7.33335 3.13889 7.56113 2.68334 8.01669C2.22778 8.47224 2.00001 9.02224 2.00001 9.66669C2.00001 10.3111 2.22778 10.8611 2.68334 11.3167C3.13889 11.7722 3.68889 12 4.33334 12H6V13.3334H4.33334Z" fill="#E8EAED"/>
</svg>
