<svg width="16" height="16" viewBox="0 0 16 16" fill="none" xmlns="http://www.w3.org/2000/svg">
<path d="M11.1625 2.7375C9.99375 2.7375 9.05 3.675 9.05 4.85C9.05 5.625 9.48125 6.3 10.1062 6.6625V6.95625C10.1062 8.0125 9.05 9.06875 7.99375 9.06875C7.11875 9.06875 6.43125 9.25 5.88125 9.55V4.55C6.50625 4.1875 6.9375 3.5125 6.9375 2.7375C6.9375 1.56875 6 0.625 4.83125 0.625C3.6625 0.625 2.71875 1.5625 2.71875 2.7375C2.71875 3.5125 3.15 4.1875 3.775 4.55V11.4563C3.15 11.8188 2.71875 12.4938 2.71875 13.2688C2.71875 14.4375 3.65625 15.3813 4.83125 15.3813C6 15.3813 6.94375 14.4438 6.94375 13.2688C6.94375 12.7063 6.73125 12.2125 6.38125 11.8375C6.69375 11.4562 7.1875 11.1625 7.99375 11.1625C10.1062 11.1625 12.2125 9.05 12.2125 6.94375V6.65C12.8375 6.2875 13.2688 5.6125 13.2688 4.8375C13.2688 3.66875 12.3313 2.725 11.1562 2.725L11.1625 2.7375ZM4.8375 1.68125C5.4125 1.68125 5.89375 2.1625 5.89375 2.7375C5.89375 3.3125 5.4125 3.79375 4.8375 3.79375C4.2625 3.79375 3.78125 3.3125 3.78125 2.7375C3.78125 2.15625 4.25625 1.68125 4.8375 1.68125ZM4.8375 14.3375C4.2625 14.3375 3.78125 13.8562 3.78125 13.2812C3.78125 12.7063 4.2625 12.225 4.8375 12.225C5.4125 12.225 5.89375 12.7063 5.89375 13.2812C5.89375 13.8562 5.4125 14.3375 4.8375 14.3375ZM11.1625 5.9C10.5875 5.9 10.1062 5.41875 10.1062 4.84375C10.1062 4.26875 10.5875 3.7875 11.1625 3.7875C11.7375 3.7875 12.2188 4.26875 12.2188 4.84375C12.2188 5.41875 11.7438 5.9 11.1625 5.9Z" fill="white"/>
</svg>
