<svg width="24" height="24" viewBox="0 0 24 24" fill="none" xmlns="http://www.w3.org/2000/svg">
<path d="M16.7438 4.10625C14.9906 4.10625 13.575 5.5125 13.575 7.275C13.575 8.4375 14.2219 9.45 15.1594 9.99375V10.4344C15.1594 12.0188 13.575 13.6031 11.9906 13.6031C10.6781 13.6031 9.64687 13.875 8.82187 14.325V6.825C9.75937 6.28125 10.4062 5.26875 10.4062 4.10625C10.4062 2.35312 9 0.9375 7.24688 0.9375C5.49375 0.9375 4.07812 2.34375 4.07812 4.10625C4.07812 5.26875 4.725 6.28125 5.6625 6.825V17.1844C4.725 17.7281 4.07812 18.7406 4.07812 19.9031C4.07812 21.6563 5.48438 23.0719 7.24688 23.0719C9 23.0719 10.4156 21.6656 10.4156 19.9031C10.4156 19.0594 10.0969 18.3188 9.57187 17.7563C10.0406 17.1844 10.7812 16.7438 11.9906 16.7438C15.1594 16.7438 18.3187 13.575 18.3187 10.4156V9.975C19.2562 9.43125 19.9031 8.41875 19.9031 7.25625C19.9031 5.50313 18.4969 4.0875 16.7344 4.0875L16.7438 4.10625ZM7.25625 2.52188C8.11875 2.52188 8.84063 3.24375 8.84063 4.10625C8.84063 4.96875 8.11875 5.69063 7.25625 5.69063C6.39375 5.69063 5.67188 4.96875 5.67188 4.10625C5.67188 3.23438 6.38438 2.52188 7.25625 2.52188ZM7.25625 21.5063C6.39375 21.5063 5.67188 20.7844 5.67188 19.9219C5.67188 19.0594 6.39375 18.3375 7.25625 18.3375C8.11875 18.3375 8.84063 19.0594 8.84063 19.9219C8.84063 20.7844 8.11875 21.5063 7.25625 21.5063ZM16.7438 8.85C15.8813 8.85 15.1594 8.12813 15.1594 7.26563C15.1594 6.40313 15.8813 5.68125 16.7438 5.68125C17.6063 5.68125 18.3281 6.40313 18.3281 7.26563C18.3281 8.12813 17.6156 8.85 16.7438 8.85Z" fill="white"/>
<circle cx="17" cy="17" r="6" fill="#007ACC"/>
<path d="M17.0682 13.6278C17.3665 13.6302 17.6648 13.687 17.9631 13.7983C18.2614 13.9096 18.5336 14.0942 18.7798 14.3523C19.026 14.608 19.2237 14.9571 19.3729 15.3999C19.522 15.8426 19.5966 16.3977 19.5966 17.0653C19.5966 17.7116 19.535 18.2857 19.4119 18.7876C19.2912 19.2872 19.116 19.7086 18.8864 20.0518C18.6591 20.3951 18.3821 20.6555 18.0554 20.8331C17.7311 21.0107 17.3641 21.0994 16.9545 21.0994C16.5473 21.0994 16.1839 21.0189 15.8643 20.858C15.5471 20.6946 15.2867 20.4685 15.0831 20.1797C14.8819 19.8885 14.7528 19.5511 14.696 19.1676H15.5625C15.6406 19.5014 15.7957 19.7772 16.0277 19.995C16.2621 20.2105 16.571 20.3182 16.9545 20.3182C17.5156 20.3182 17.9583 20.0732 18.2827 19.5831C18.6094 19.093 18.7727 18.4006 18.7727 17.5057H18.7159C18.5833 17.7045 18.4259 17.8762 18.2436 18.0206C18.0613 18.165 17.8589 18.2763 17.6364 18.3544C17.4138 18.4325 17.1771 18.4716 16.9261 18.4716C16.5095 18.4716 16.1271 18.3686 15.7791 18.1626C15.4335 17.9543 15.1565 17.669 14.9482 17.3068C14.7422 16.9422 14.6392 16.5256 14.6392 16.0568C14.6392 15.6117 14.7386 15.2045 14.9375 14.8352C15.1387 14.4635 15.4205 14.1676 15.7827 13.9474C16.1473 13.7273 16.5758 13.6207 17.0682 13.6278ZM17.0682 14.4091C16.7699 14.4091 16.5012 14.4837 16.2621 14.6328C16.0253 14.7796 15.8371 14.9785 15.6974 15.2294C15.5601 15.478 15.4915 15.7538 15.4915 16.0568C15.4915 16.3598 15.5578 16.6357 15.6903 16.8842C15.8253 17.1304 16.0088 17.3269 16.2408 17.4737C16.4751 17.6181 16.7415 17.6903 17.0398 17.6903C17.2647 17.6903 17.4742 17.6465 17.6683 17.5589C17.8625 17.469 18.0317 17.3471 18.1761 17.1932C18.3229 17.0369 18.4377 16.8606 18.5206 16.6641C18.6035 16.4652 18.6449 16.258 18.6449 16.0426C18.6449 15.7585 18.5762 15.4922 18.4389 15.2436C18.304 14.995 18.117 14.7938 17.8778 14.6399C17.6411 14.486 17.3712 14.4091 17.0682 14.4091Z" fill="white"/>
</svg>
