<svg width="16" height="16" viewBox="0 0 16 16" fill="none" xmlns="http://www.w3.org/2000/svg">
<path d="M8.00001 11.3333C8.1889 11.3333 8.34723 11.2694 8.47501 11.1416C8.60279 11.0139 8.66668 10.8555 8.66668 10.6666V7.99998C8.66668 7.81109 8.60279 7.65276 8.47501 7.52498C8.34723 7.3972 8.1889 7.33331 8.00001 7.33331C7.81112 7.33331 7.65279 7.3972 7.52501 7.52498C7.39723 7.65276 7.33334 7.81109 7.33334 7.99998V10.6666C7.33334 10.8555 7.39723 11.0139 7.52501 11.1416C7.65279 11.2694 7.81112 11.3333 8.00001 11.3333ZM8.00001 5.99998C8.1889 5.99998 8.34723 5.93609 8.47501 5.80831C8.60279 5.68053 8.66668 5.5222 8.66668 5.33331C8.66668 5.14442 8.60279 4.98609 8.47501 4.85831C8.34723 4.73054 8.1889 4.66665 8.00001 4.66665C7.81112 4.66665 7.65279 4.73054 7.52501 4.85831C7.39723 4.98609 7.33334 5.14442 7.33334 5.33331C7.33334 5.5222 7.39723 5.68053 7.52501 5.80831C7.65279 5.93609 7.81112 5.99998 8.00001 5.99998ZM8.00001 14.6666C7.07779 14.6666 6.21112 14.4916 5.40001 14.1416C4.5889 13.7916 3.88334 13.3166 3.28334 12.7166C2.68334 12.1166 2.20834 11.4111 1.85834 10.6C1.50834 9.78887 1.33334 8.9222 1.33334 7.99998C1.33334 7.07776 1.50834 6.21109 1.85834 5.39998C2.20834 4.58887 2.68334 3.88331 3.28334 3.28331C3.88334 2.68331 4.5889 2.20831 5.40001 1.85831C6.21112 1.50831 7.07779 1.33331 8.00001 1.33331C8.92223 1.33331 9.7889 1.50831 10.6 1.85831C11.4111 2.20831 12.1167 2.68331 12.7167 3.28331C13.3167 3.88331 13.7917 4.58887 14.1417 5.39998C14.4917 6.21109 14.6667 7.07776 14.6667 7.99998C14.6667 8.9222 14.4917 9.78887 14.1417 10.6C13.7917 11.4111 13.3167 12.1166 12.7167 12.7166C12.1167 13.3166 11.4111 13.7916 10.6 14.1416C9.7889 14.4916 8.92223 14.6666 8.00001 14.6666ZM8.00001 13.3333C9.4889 13.3333 10.75 12.8166 11.7833 11.7833C12.8167 10.75 13.3333 9.48887 13.3333 7.99998C13.3333 6.51109 12.8167 5.24998 11.7833 4.21665C10.75 3.18331 9.4889 2.66665 8.00001 2.66665C6.51112 2.66665 5.25001 3.18331 4.21668 4.21665C3.18334 5.24998 2.66668 6.51109 2.66668 7.99998C2.66668 9.48887 3.18334 10.75 4.21668 11.7833C5.25001 12.8166 6.51112 13.3333 8.00001 13.3333Z" fill="#E8EAED"/>
</svg>
