<svg width="16" height="16" viewBox="0 0 16 16" fill="none" xmlns="http://www.w3.org/2000/svg">
<path d="M3.33329 12.6666C3.1444 12.6666 2.98607 12.6028 2.85829 12.475C2.73051 12.3472 2.66663 12.1889 2.66663 12C2.66663 11.8111 2.73051 11.6528 2.85829 11.525C2.98607 11.3972 3.1444 11.3333 3.33329 11.3333H3.99996V6.66665C3.99996 5.74442 4.27774 4.92498 4.83329 4.20831C5.38885 3.49165 6.11107 3.0222 6.99996 2.79998V2.33331C6.99996 2.05554 7.09718 1.81942 7.29163 1.62498C7.48607 1.43054 7.72218 1.33331 7.99996 1.33331C8.27774 1.33331 8.51385 1.43054 8.70829 1.62498C8.90274 1.81942 8.99996 2.05554 8.99996 2.33331V2.79998C9.88885 3.0222 10.6111 3.49165 11.1666 4.20831C11.7222 4.92498 12 5.74442 12 6.66665V11.3333H12.6666C12.8555 11.3333 13.0138 11.3972 13.1416 11.525C13.2694 11.6528 13.3333 11.8111 13.3333 12C13.3333 12.1889 13.2694 12.3472 13.1416 12.475C13.0138 12.6028 12.8555 12.6666 12.6666 12.6666H3.33329ZM7.99996 14.6666C7.63329 14.6666 7.3194 14.5361 7.05829 14.275C6.79718 14.0139 6.66663 13.7 6.66663 13.3333H9.33329C9.33329 13.7 9.20274 14.0139 8.94163 14.275C8.68052 14.5361 8.36663 14.6666 7.99996 14.6666ZM5.33329 11.3333H10.6666V6.66665C10.6666 5.93331 10.4055 5.30554 9.88329 4.78331C9.36107 4.26109 8.73329 3.99998 7.99996 3.99998C7.26663 3.99998 6.63885 4.26109 6.11663 4.78331C5.5944 5.30554 5.33329 5.93331 5.33329 6.66665V11.3333Z" fill="#E8EAED"/>
</svg>
