<svg width="24" height="24" viewBox="0 0 24 24" fill="none" xmlns="http://www.w3.org/2000/svg">
<path d="M4.4 21L10.7 14.7C11.2 15.1 11.775 15.4167 12.425 15.65C13.075 15.8833 13.7667 16 14.5 16C16.3167 16 17.8542 15.3708 19.1125 14.1125C20.3708 12.8542 21 11.3167 21 9.5C21 7.68333 20.3708 6.14583 19.1125 4.8875C17.8542 3.62917 16.3167 3 14.5 3C12.6833 3 11.1458 3.62917 9.8875 4.8875C8.62917 6.14583 8 7.68333 8 9.5C8 10.2333 8.11667 10.925 8.35 11.575C8.58333 12.225 8.9 12.8 9.3 13.3L3 19.6L4.4 21ZM14.5 14C13.25 14 12.1875 13.5625 11.3125 12.6875C10.4375 11.8125 10 10.75 10 9.5C10 8.25 10.4375 7.1875 11.3125 6.3125C12.1875 5.4375 13.25 5 14.5 5C15.75 5 16.8125 5.4375 17.6875 6.3125C18.5625 7.1875 19 8.25 19 9.5C19 10.75 18.5625 11.8125 17.6875 12.6875C16.8125 13.5625 15.75 14 14.5 14Z" fill="#E8EAED"/>
</svg>
