<svg width="24" height="24" viewBox="0 0 24 24" fill="none" xmlns="http://www.w3.org/2000/svg">
<path d="M8 11.5714V4.14286C8 3.81905 8.11852 3.54762 8.35556 3.32857C8.59259 3.10952 8.86914 3 9.18519 3C9.28395 3 9.38765 3.01429 9.4963 3.04286C9.60494 3.07143 9.70864 3.11429 9.80741 3.17143L19.4667 9.08571C19.6444 9.2 19.7778 9.34286 19.8667 9.51429C19.9556 9.68571 20 9.86667 20 10.0571C20 10.2476 19.9556 10.4286 19.8667 10.6C19.7778 10.7714 19.6444 10.9143 19.4667 11.0286L11.8204 15C11.8204 15 12.413 13.8571 11.8204 12.7143L10.3704 11.9502C10.6352 11.3788 9.80741 11.5714 9.80741 11.5714C9.57037 11.3524 8 11.8952 8 11.5714ZM10.3704 11.9502L16.5926 10.0571L10.3704 6.22857V11.9502Z" fill="#E8EAED"/>
<path d="M9 21C8.32292 21 7.69531 20.8182 7.11719 20.4545C6.53906 20.0909 6.08333 19.5909 5.75 18.9545H4.625C4.44792 18.9545 4.29948 18.8892 4.17969 18.7585C4.0599 18.6278 4 18.4659 4 18.2727C4 18.0795 4.0599 17.9176 4.17969 17.7869C4.29948 17.6563 4.44792 17.5909 4.625 17.5909H5.3125C5.28125 17.3636 5.26302 17.1364 5.25781 16.9091C5.2526 16.6818 5.25 16.4545 5.25 16.2273H4.625C4.44792 16.2273 4.29948 16.1619 4.17969 16.0313C4.0599 15.9006 4 15.7386 4 15.5455C4 15.3523 4.0599 15.1903 4.17969 15.0597C4.29948 14.929 4.44792 14.8636 4.625 14.8636H5.25C5.25 14.6364 5.2526 14.4091 5.25781 14.1818C5.26302 13.9545 5.28125 13.7273 5.3125 13.5H4.625C4.44792 13.5 4.29948 13.4347 4.17969 13.304C4.0599 13.1733 4 13.0114 4 12.8182C4 12.625 4.0599 12.4631 4.17969 12.3324C4.29948 12.2017 4.44792 12.1364 4.625 12.1364H5.75C5.89583 11.875 6.0599 11.6307 6.24219 11.4034C6.42448 11.1761 6.63542 10.9773 6.875 10.8068L6.29688 10.1591C6.18229 10.0341 6.125 9.87784 6.125 9.69034C6.125 9.50284 6.1875 9.34091 6.3125 9.20455C6.42708 9.07955 6.57292 9.01705 6.75 9.01705C6.92708 9.01705 7.07292 9.07955 7.1875 9.20455L8.09375 10.1932C8.38542 10.0909 8.68229 10.0398 8.98438 10.0398C9.28646 10.0398 9.58333 10.0909 9.875 10.1932L10.8125 9.1875C10.9271 9.0625 11.0703 9 11.2422 9C11.4141 9 11.5625 9.06818 11.6875 9.20455C11.8021 9.32955 11.8594 9.48864 11.8594 9.68182C11.8594 9.875 11.8021 10.0341 11.6875 10.1591L11.0938 10.8068C11.3333 10.9773 11.5495 11.1733 11.7422 11.3949C11.9349 11.6165 12.1042 11.8636 12.25 12.1364H13.375C13.5521 12.1364 13.7005 12.2017 13.8203 12.3324C13.9401 12.4631 14 12.625 14 12.8182C14 13.0114 13.9401 13.1733 13.8203 13.304C13.7005 13.4347 13.5521 13.5 13.375 13.5H12.6875C12.7188 13.7273 12.737 13.9545 12.7422 14.1818C12.7474 14.4091 12.75 14.6364 12.75 14.8636H13.375C13.5521 14.8636 13.7005 14.929 13.8203 15.0597C13.9401 15.1903 14 15.3523 14 15.5455C14 15.7386 13.9401 15.9006 13.8203 16.0313C13.7005 16.1619 13.5521 16.2273 13.375 16.2273H12.75C12.75 16.4545 12.7474 16.6818 12.7422 16.9091C12.737 17.1364 12.7188 17.3636 12.6875 17.5909H13.375C13.5521 17.5909 13.7005 17.6563 13.8203 17.7869C13.9401 17.9176 14 18.0795 14 18.2727C14 18.4659 13.9401 18.6278 13.8203 18.7585C13.7005 18.8892 13.5521 18.9545 13.375 18.9545H12.25C11.9167 19.5909 11.4609 20.0909 10.8828 20.4545C10.3047 20.8182 9.67708 21 9 21ZM9 19.6364C9.6875 19.6364 10.276 19.3693 10.7656 18.8352C11.2552 18.3011 11.5 17.6591 11.5 16.9091V14.1818C11.5 13.4318 11.2552 12.7898 10.7656 12.2557C10.276 11.7216 9.6875 11.4545 9 11.4545C8.3125 11.4545 7.72396 11.7216 7.23438 12.2557C6.74479 12.7898 6.5 13.4318 6.5 14.1818V16.9091C6.5 17.6591 6.74479 18.3011 7.23438 18.8352C7.72396 19.3693 8.3125 19.6364 9 19.6364ZM8.375 17.5909H9.625C9.80208 17.5909 9.95052 17.5256 10.0703 17.3949C10.1901 17.2642 10.25 17.1023 10.25 16.9091C10.25 16.7159 10.1901 16.554 10.0703 16.4233C9.95052 16.2926 9.80208 16.2273 9.625 16.2273H8.375C8.19792 16.2273 8.04948 16.2926 7.92969 16.4233C7.8099 16.554 7.75 16.7159 7.75 16.9091C7.75 17.1023 7.8099 17.2642 7.92969 17.3949C8.04948 17.5256 8.19792 17.5909 8.375 17.5909ZM8.375 14.8636H9.625C9.80208 14.8636 9.95052 14.7983 10.0703 14.6676C10.1901 14.5369 10.25 14.375 10.25 14.1818C10.25 13.9886 10.1901 13.8267 10.0703 13.696C9.95052 13.5653 9.80208 13.5 9.625 13.5H8.375C8.19792 13.5 8.04948 13.5653 7.92969 13.696C7.8099 13.8267 7.75 13.9886 7.75 14.1818C7.75 14.375 7.8099 14.5369 7.92969 14.6676C8.04948 14.7983 8.19792 14.8636 8.375 14.8636Z" fill="#E8EAED"/>
</svg>
