<svg width="16" height="16" viewBox="0 0 16 16" fill="none" xmlns="http://www.w3.org/2000/svg">
<path d="M1.81666 14C1.69444 14 1.58333 13.9694 1.48333 13.9083C1.38333 13.8472 1.30555 13.7667 1.24999 13.6667C1.19444 13.5667 1.16388 13.4583 1.15833 13.3417C1.15277 13.225 1.18333 13.1111 1.24999 13L7.41666 2.33333C7.48333 2.22222 7.56944 2.13889 7.67499 2.08333C7.78055 2.02778 7.88888 2 7.99999 2C8.1111 2 8.21944 2.02778 8.32499 2.08333C8.43055 2.13889 8.51666 2.22222 8.58333 2.33333L14.75 13C14.8167 13.1111 14.8472 13.225 14.8417 13.3417C14.8361 13.4583 14.8055 13.5667 14.75 13.6667C14.6944 13.7667 14.6167 13.8472 14.5167 13.9083C14.4167 13.9694 14.3055 14 14.1833 14H1.81666ZM2.96666 12.6667H13.0333L7.99999 4L2.96666 12.6667ZM7.99999 12C8.18888 12 8.34721 11.9361 8.47499 11.8083C8.60277 11.6806 8.66666 11.5222 8.66666 11.3333C8.66666 11.1444 8.60277 10.9861 8.47499 10.8583C8.34721 10.7306 8.18888 10.6667 7.99999 10.6667C7.8111 10.6667 7.65277 10.7306 7.52499 10.8583C7.39721 10.9861 7.33333 11.1444 7.33333 11.3333C7.33333 11.5222 7.39721 11.6806 7.52499 11.8083C7.65277 11.9361 7.8111 12 7.99999 12ZM7.99999 10C8.18888 10 8.34721 9.93611 8.47499 9.80833C8.60277 9.68056 8.66666 9.52222 8.66666 9.33333V7.33333C8.66666 7.14444 8.60277 6.98611 8.47499 6.85833C8.34721 6.73056 8.18888 6.66667 7.99999 6.66667C7.8111 6.66667 7.65277 6.73056 7.52499 6.85833C7.39721 6.98611 7.33333 7.14444 7.33333 7.33333V9.33333C7.33333 9.52222 7.39721 9.68056 7.52499 9.80833C7.65277 9.93611 7.8111 10 7.99999 10Z" fill="#E8EAED"/>
</svg>
