<svg width="243" height="243" viewBox="0 0 243 243" fill="none" xmlns="http://www.w3.org/2000/svg">
<g clip-path="url(#clip0_119_19)">
<path d="M168.373 166.809C177.341 165.881 184.144 158.15 183.834 148.873C183.526 139.596 175.794 132.174 166.518 132.174H165.9C156.313 132.483 148.892 140.523 149.201 150.109C149.51 154.748 151.365 158.768 154.148 161.551C143.635 182.271 127.555 197.423 103.435 210.102C87.0462 218.761 70.039 221.853 53.0319 219.689C39.1163 217.833 28.2934 211.649 21.4894 201.443C11.5947 186.291 10.6673 169.901 19.0166 153.511C24.8923 141.76 34.1681 133.101 40.0437 128.772C38.8069 124.752 36.9512 117.949 36.0238 113.002C-8.81446 145.472 -4.17562 189.383 9.43048 210.102C19.6346 225.565 40.3532 235.151 63.236 235.151C69.4202 235.151 75.6043 234.532 81.7894 232.987C121.371 225.255 151.366 201.753 168.373 166.809ZM222.798 128.463C199.296 100.941 164.663 85.7885 125.081 85.7885H120.134C117.351 80.2223 111.475 76.5108 104.982 76.5108H104.363C94.7776 76.8203 87.3566 84.8602 87.6651 94.4473C87.9745 103.724 95.705 111.146 104.982 111.146H105.6C112.403 110.836 118.278 106.507 120.752 100.631H126.318C149.82 100.631 172.084 107.434 192.185 120.732C207.645 130.937 218.778 144.235 224.962 160.315C230.219 173.303 229.909 185.981 224.343 196.805C215.685 213.195 201.152 222.163 181.979 222.163C169.61 222.163 157.86 218.451 151.675 215.668C148.274 218.761 142.089 223.708 137.759 226.802C151.057 232.986 164.663 236.388 177.65 236.388C207.336 236.388 229.291 219.998 237.641 203.608C246.608 185.672 245.989 154.748 222.798 128.463ZM65.7097 172.065C66.0191 181.343 73.7495 188.764 83.0263 188.764H83.6451C93.2313 188.455 100.652 180.414 100.343 170.828C100.034 161.55 92.303 154.129 83.0263 154.129H82.4083C81.7894 154.129 80.8611 154.129 80.2441 154.438C67.5654 133.41 62.3086 110.527 64.1643 85.7875C65.4002 67.2332 71.5853 51.1525 82.4083 37.8548C91.3756 26.413 108.692 20.8467 120.444 20.5382C153.221 19.9194 167.136 60.7386 168.064 77.1288C172.084 78.0562 178.887 80.2213 183.526 81.7676C179.814 31.6716 148.892 5.69531 119.207 5.69531C91.3756 5.69531 65.7097 25.796 55.5046 55.4828C41.2806 95.0652 50.5573 133.101 67.8739 163.098C66.3285 165.262 65.4002 168.663 65.7097 172.065Z" fill="#764ABC"/>
</g>
<defs>
<clipPath id="clip0_119_19">
<rect width="243" height="243" fill="white"/>
</clipPath>
</defs>
</svg>
