<?xml version="1.0" encoding="utf-8"?>
<!-- Generator: Adobe Illustrator 27.5.0, SVG Export Plug-In . SVG Version: 6.00 Build 0)  -->
<svg version="1.1" xmlns="http://www.w3.org/2000/svg" xmlns:xlink="http://www.w3.org/1999/xlink"
	x="0px" y="0px"
	viewBox="0 0 3710 3710" style="enable-background:new 0 0 3710 3710;" xml:space="preserve">

<g id="Illustration">
	<g>
		<linearGradient id="SVGID_1_" gradientUnits="userSpaceOnUse" x1="3630.4121" y1="4081.4114" x2="1138.9376" y2="987.1564">
			<stop  offset="0" style="stop-color:#DAE3FE"/>
			<stop  offset="1" style="stop-color:#E9EFFD"/>
		</linearGradient>
		<path style="fill:url(#SVGID_1_);" d="M2944.992,2861.149c-57.228,60.247-111.377,99.1-154.159,129.797
			c-502.893,360.831-1097.948,255.651-1224.414,229.964c-186.751-37.93-547.736-111.248-808.721-418.162
			c-394.85-464.335-333.366-1195.882-27.094-1678.786c56.022-88.331,351.946-578.591,953.411-657.214
			c364-47.581,788.307,48.385,1095.578,305.817C3424.583,1312.939,3378.667,2404.59,2944.992,2861.149z"/>
		<g>
			<g>
				<path style="fill:#BDD0FB;" d="M1200.328,2157.346c0,0,8.49-356.958-155.921-452.495
					c-164.41-95.538-477.014-155.268-488.731-667.825c-6.861-300.074-14.285-431.271-19.262-488.479
					c-1.941-22.316,17.889-40.329,39.902-36.182c155.711,29.333,661.548,150.072,767.601,495.328
					C1469.643,1416.998,1200.328,2157.346,1200.328,2157.346z"/>
				
					<linearGradient id="SVGID_00000140693959238602303810000015442634827186607499_" gradientUnits="userSpaceOnUse" x1="685.7141" y1="1351.4071" x2="1249.1052" y2="1351.4071">
					<stop  offset="0" style="stop-color:#DAE3FE"/>
					<stop  offset="1" style="stop-color:#E9EFFD"/>
				</linearGradient>
				<path style="fill:url(#SVGID_00000140693959238602303810000015442634827186607499_);" d="M696.737,654.974
					c170.924,152.44,368.566,422.227,473.911,692.016c13.522,44.463,53.076,139.017,70.253,307.016
					c15.342,140.114,7.715,288.172-10.888,386.179c-1.176,6.196-7.152,10.266-13.349,9.089c-10.654-2.021-9.237-13.48-9.141-13.119
					c21.245-167.447,12.427-375.864-36.254-563.916c-62.194-230.906-200.911-454.778-344.39-644.653l-14.765-18.697
					C700.954,666.132,677.552,665.08,687.944,655.129C690.398,652.778,694.24,652.757,696.737,654.974z"/>
			</g>
			<g>
				<path style="fill:#91B3FA;" d="M1464.542,2843.646c22.244,10.907-210.586-281.878-283.52-741.718
					c-34.368-216.689-34.817-488.182-158.252-592.806c-102.732-87.075-452.313-32.102-566.696-11.21
					c-14.293,2.61-19.105,20.665-7.979,30.01c54.853,46.067,172.194,154.728,202.768,264.238
					c40.299,144.342,177.528,236.152,300.383,260.999c122.855,24.847,191.197,48.959,251.048,245.432
					C1262.145,2495.062,1401.337,2812.654,1464.542,2843.646z"/>
				<path style="fill:#BDD0FB;" d="M616.947,1558.899c145.935,6.112,302.585,72.683,382.08,197.556l7.503,11.916
					c17.33,27.94,115.542,226.561,170.089,391.206c0.679,2.052-0.433,4.268-2.485,4.948c-3.487,1.154-5.233-2.682-4.9-2.343
					c-38.004-93.013-92.587-210.938-136.06-299.123c-46.62-96.228-79.245-161.397-185.584-223.819
					c-118.358-67.226-231.432-74.146-231.093-74.077c-1.726-0.176-2.982-1.718-2.806-3.444
					C613.86,1560.059,615.303,1558.834,616.947,1558.899z"/>
			</g>
		</g>
		<g>
			
				<linearGradient id="SVGID_00000060731719145516215330000013941462623842512546_" gradientUnits="userSpaceOnUse" x1="2880.5706" y1="1096.8175" x2="-40.2255" y2="4426.0576">
				<stop  offset="0" style="stop-color:#09005D"/>
				<stop  offset="1" style="stop-color:#1A0F91"/>
			</linearGradient>
			<path style="fill:url(#SVGID_00000060731719145516215330000013941462623842512546_);" d="M3224.637,1988.528
				c0,614.63-498.257,1112.885-1112.885,1112.885c-614.63,0-1140.413-520.027-1140.413-1134.656
				c0-614.63,525.784-1091.115,1140.413-1091.115C2726.38,875.642,3224.637,1373.899,3224.637,1988.528z"/>
			<g>
				<path style="fill:#FFFFFF;" d="M1058.711,1711.943c-0.142,0-0.291-0.018-0.436-0.056c-0.902-0.241-1.441-1.169-1.2-2.071
					c11.904-44.719,27.107-89.062,45.187-131.796c0.367-0.863,1.355-1.26,2.221-0.899c0.859,0.364,1.263,1.357,0.899,2.218
					c-18.023,42.59-33.173,86.781-45.034,131.346C1060.146,1711.443,1059.461,1711.943,1058.711,1711.943z"/>
				<path style="fill:#FFFFFF;" d="M1228.789,1364.163c-0.357,0-0.714-0.111-1.018-0.341c-0.747-0.564-0.896-1.625-0.334-2.372
					c205.057-271.927,535.395-434.274,883.654-434.274c148.68,0,292.491,30.142,427.439,89.588c0.856,0.377,1.246,1.375,0.869,2.231
					c-0.38,0.856-1.379,1.24-2.231,0.866c-134.515-59.256-277.869-89.3-426.077-89.3c-347.201,0-676.528,161.842-880.95,432.928
					C1229.807,1363.93,1229.302,1364.163,1228.789,1364.163z"/>
			</g>
			
				<linearGradient id="SVGID_00000160161986158883623620000012707389802831554713_" gradientUnits="userSpaceOnUse" x1="2386.8525" y1="-161.9529" x2="2014.4922" y2="2600.2888">
				<stop  offset="0" style="stop-color:#4F52FF"/>
				<stop  offset="1" style="stop-color:#4042E2"/>
			</linearGradient>
			<path style="fill:url(#SVGID_00000160161986158883623620000012707389802831554713_);" d="M3073.226,1988.528
				c0,532.03-431.296,963.324-963.325,963.324s-987.152-450.14-987.152-982.169s455.123-944.48,987.152-944.48
				S3073.226,1456.499,3073.226,1988.528z"/>
			
				<linearGradient id="SVGID_00000149372080110246610750000008916171657094841728_" gradientUnits="userSpaceOnUse" x1="2660.5173" y1="2925.0164" x2="1963.1881" y2="792.4045">
				<stop  offset="0" style="stop-color:#4F52FF"/>
				<stop  offset="1" style="stop-color:#4042E2"/>
			</linearGradient>
			<path style="fill:url(#SVGID_00000149372080110246610750000008916171657094841728_);" d="M3073.224,1988.528
				c0-532.029-431.294-963.324-963.324-963.324c-288.094,0-553.593,120.983-736.533,316.361l742.079,617.447l152.553,979.852
				C2724.8,2863.433,3073.224,2466.705,3073.224,1988.528z"/>
			
				<linearGradient id="SVGID_00000017509909133736929990000011051752321016764861_" gradientUnits="userSpaceOnUse" x1="1145.2671" y1="1921.558" x2="2942.105" y2="1921.558">
				<stop  offset="0" style="stop-color:#4F52FF"/>
				<stop  offset="1" style="stop-color:#4042E2"/>
			</linearGradient>
			<path style="fill:url(#SVGID_00000017509909133736929990000011051752321016764861_);" d="M2942.105,1921.558
				c0,480.145-397.322,869.381-887.443,869.381s-909.395-406.243-909.395-886.389c0-480.147,419.274-852.375,909.395-852.375
				S2942.105,1441.411,2942.105,1921.558z"/>
			<path style="fill:#91B3FA;" d="M1368.932,1938.564c-2.381,40.893-37.458,72.113-78.351,69.732
				c-40.891-2.38-72.111-37.459-69.731-78.35c2.381-40.891,37.459-72.112,78.351-69.731
				C1340.092,1862.594,1371.311,1897.672,1368.932,1938.564z"/>
			<path style="fill:#91B3FA;" d="M2971.236,2031.824c-2.379,40.892-37.459,72.111-78.349,69.732
				c-40.893-2.381-72.113-37.459-69.732-78.351c2.379-40.891,37.459-72.111,78.349-69.731
				C2942.397,1955.854,2973.617,1990.933,2971.236,2031.824z"/>
			<path style="fill:#91B3FA;" d="M1965.176,2697.374c40.295,7.36,66.993,45.99,59.633,86.285
				c-7.359,40.295-45.992,66.993-86.285,59.633c-40.295-7.359-66.993-45.992-59.633-86.285
				C1886.25,2716.713,1924.881,2690.015,1965.176,2697.374z"/>
			<path style="fill:#91B3FA;" d="M2253.563,1118.479c40.295,7.359,66.994,45.99,59.634,86.285
				c-7.36,40.294-45.99,66.992-86.285,59.631c-40.293-7.36-66.993-45.99-59.633-86.283
				C2174.637,1137.817,2213.269,1111.119,2253.563,1118.479z"/>
			<path style="fill:#91B3FA;" d="M2492.45,2739.764c7.538,19.016,5.654,36.821-4.206,39.77c-9.86,2.949-23.965-10.077-31.501-29.09
				c-7.537-19.016-5.652-36.822,4.206-39.771C2470.81,2707.726,2484.914,2720.751,2492.45,2739.764z"/>
			<path style="fill:#91B3FA;" d="M1847.843,1242.182c7.536,19.016,5.653,36.82-4.208,39.77c-9.86,2.949-23.963-10.077-31.5-29.09
				c-7.538-19.016-5.654-36.822,4.206-39.771C1826.203,1210.143,1840.306,1223.168,1847.843,1242.182z"/>
			<path style="fill:#91B3FA;" d="M2829.021,2455.078c16.316,12.338,23.95,28.533,17.054,36.173
				c-6.897,7.641-25.711,3.832-42.027-8.504c-16.314-12.34-23.948-28.535-17.053-36.175
				C2793.892,2438.932,2812.708,2442.741,2829.021,2455.078z"/>
			<path style="fill:#91B3FA;" d="M1500.536,1509.879c16.314,12.338,23.95,28.534,17.054,36.173
				c-6.895,7.641-25.713,3.832-42.026-8.506c-16.315-12.338-23.95-28.533-17.053-36.173
				C1465.406,1493.734,1484.221,1497.543,1500.536,1509.879z"/>
			<path style="fill:#91B3FA;" d="M2871.293,1607.125c18.469-8.793,36.361-8.105,39.962,1.536
				c3.603,9.641-8.447,24.584-26.916,33.379c-18.467,8.793-36.36,8.106-39.962-1.535
				C2840.776,1630.865,2852.826,1615.92,2871.293,1607.125z"/>
			<path style="fill:#91B3FA;" d="M1420.245,2350.586c18.469-8.795,36.36-8.106,39.962,1.534
				c3.603,9.641-8.448,24.586-26.915,33.378c-18.467,8.795-36.36,8.106-39.962-1.533
				C1389.727,2374.323,1401.778,2359.379,1420.245,2350.586z"/>
			<path style="fill:#91B3FA;" d="M2564.706,1290.379c11.217-17.106,26.865-25.808,34.949-19.439
				c8.084,6.37,5.543,25.398-5.672,42.503c-11.218,17.104-26.866,25.807-34.949,19.437
				C2550.949,1326.51,2553.488,1307.481,2564.706,1290.379z"/>
			<path style="fill:#91B3FA;" d="M1710.603,2679.182c11.217-17.103,26.866-25.805,34.95-19.436
				c8.084,6.367,5.544,25.396-5.674,42.501c-11.217,17.104-26.864,25.807-34.949,19.438
				C1696.846,2715.316,1699.386,2696.288,1710.603,2679.182z"/>
			
				<linearGradient id="SVGID_00000091727482863917969850000011828920122895752834_" gradientUnits="userSpaceOnUse" x1="2098.7166" y1="2072.2966" x2="956.2979" y2="-95.7589">
				<stop  offset="0" style="stop-color:#FF928E"/>
				<stop  offset="1" style="stop-color:#FE7062"/>
			</linearGradient>
			<path style="fill:url(#SVGID_00000091727482863917969850000011828920122895752834_);" d="M2079.861,1931.443l-315.158-586.461
				c-6.105-11.361,2.124-25.128,15.022-25.128h76.729c14.925,0,22.65-17.816,12.45-28.711L1476.671,872.12
				c-12.001-12.818-33.204-1.328-29.014,15.724l135.319,550.954c3.239,13.183,19.834,17.485,29.067,7.531l62.042-66.876
				c7.667-8.266,21.103-6.949,27.021,2.648l349.214,566.368c4.864,7.888,15.136,10.45,23.135,5.768l0,0
				C2081.373,1949.6,2084.205,1939.529,2079.861,1931.443z"/>
			<path style="opacity:0.86;fill:#FFFFFF;" d="M1593.438,1364.7c-0.83,0-1.557-0.615-1.676-1.459
				c-0.572-4.012-39.825-161.926-105.001-422.422c-0.992-3.97,0.774-7.914,4.393-9.815c3.623-1.908,7.894-1.117,10.605,1.965
				l80.763,91.846c0.618,0.701,0.549,1.772-0.152,2.388c-0.701,0.618-1.772,0.547-2.387-0.154l-80.766-91.846
				c-2.053-2.331-4.78-2.102-6.489-1.203c-1.706,0.896-3.431,3.003-2.681,5.995c38.929,155.602,104.347,417.439,105.067,422.791
				c0.126,0.924-0.522,1.769-1.445,1.897C1593.59,1364.693,1593.515,1364.7,1593.438,1364.7z"/>
			
				<linearGradient id="SVGID_00000124883488690235103590000011096255806171144577_" gradientUnits="userSpaceOnUse" x1="1962.4053" y1="2129.593" x2="3312.9954" y2="1758.9426">
				<stop  offset="0" style="stop-color:#FF928E"/>
				<stop  offset="1" style="stop-color:#FE7062"/>
			</linearGradient>
			<path style="fill:url(#SVGID_00000124883488690235103590000011096255806171144577_);" d="M2111.003,1992.67l582.232-18.932
				c12.896-0.196,21.335,13.446,15.401,24.897l-35.296,68.128c-6.865,13.252,5.399,28.307,19.767,24.262l552.487-155.518
				c16.902-4.758,16.454-28.871-0.615-32.997l-551.448-133.29c-13.195-3.188-24.649,9.569-20.057,22.345l30.84,85.852
				c3.812,10.612-3.537,21.935-14.782,22.774l-580.057,58.417c-9.241,0.689-16.24,8.631-15.762,17.887l0,0
				C2094.186,1985.661,2101.827,1992.808,2111.003,1992.67z"/>
			<path style="opacity:0.86;fill:#FFFFFF;" d="M3060.911,1959.31c-0.76,0-1.451-0.514-1.643-1.284
				c-0.225-0.907,0.327-1.827,1.236-2.051l118.703-29.464c3.008-0.747,4.066-3.276,4.053-5.213c-0.01-1.924-1.084-4.425-4.086-5.137
				c-125.626-29.788-418.397-99.279-423.74-101.191c-0.876-0.314-1.329-1.278-1.018-2.155c0.311-0.878,1.273-1.34,2.159-1.031
				c5.732,2.003,325.509,77.877,423.379,101.085c3.98,0.942,6.671,4.324,6.691,8.411c0.023,4.104-2.638,7.527-6.625,8.517
				l-118.703,29.464C3061.182,1959.293,3061.043,1959.31,3060.911,1959.31z"/>
			
				<linearGradient id="SVGID_00000131330702607284702420000004724925487696903590_" gradientUnits="userSpaceOnUse" x1="2243.1902" y1="1679.2886" x2="1806.5341" y2="2567.8335">
				<stop  offset="0" style="stop-color:#FF928E"/>
				<stop  offset="1" style="stop-color:#FE7062"/>
			</linearGradient>
			<path style="fill:url(#SVGID_00000131330702607284702420000004724925487696903590_);" d="M2184.135,1960.643
				c0,43.748-35.464,79.212-79.21,79.212c-43.748,0-79.211-35.464-79.211-79.212c0-43.744,35.463-79.21,79.211-79.21
				C2148.671,1881.433,2184.135,1916.899,2184.135,1960.643z"/>
		</g>
		<g>
			
				<linearGradient id="SVGID_00000148661126523648256040000012061780324556481962_" gradientUnits="userSpaceOnUse" x1="2143.7856" y1="998.1619" x2="2595.6736" y2="571.6612">
				<stop  offset="0" style="stop-color:#FEBBBA"/>
				<stop  offset="1" style="stop-color:#FF928E"/>
			</linearGradient>
			<path style="fill:url(#SVGID_00000148661126523648256040000012061780324556481962_);" d="M2312.572,549.515v217.634
				c0,25.858,20.318,47.153,46.147,48.366l272.156,12.788c27.604,1.296,50.693-20.734,50.693-48.367v-230.42
				c0-26.742-21.678-48.42-48.419-48.42h-272.157C2334.25,501.095,2312.572,522.773,2312.572,549.515z"/>
			<path style="opacity:0.73;fill:#FFFFFF;" d="M2411.165,774.919c-3.518,0-6.489-0.043-8.843-0.09
				c-4.019-0.081-7.316-3.04-7.829-7.036c-0.515-4.023,1.946-7.739,5.851-8.841l0.012-0.004c20.9-5.858,43.678-15.809,60.458-23.87
				c-80.029-6.524-96.006-47.626-99.094-66.428c-7.792-47.414,33.361-101.063,91.731-119.595
				c59.566-18.897,119.902-12.089,153.738,17.355c17.979,15.648,37.48,45.612,28.285,99.535
				C2618.276,766.835,2460.942,774.919,2411.165,774.919z M2404.286,772.929h0.005H2404.286z M2402.622,760.306
				c0.005,0,0.014,0,0.018,0C2402.635,760.306,2402.629,760.306,2402.622,760.306z M2518.248,720.854l-25.355,14.136
				c-1.335,0.742-23.652,13.12-50.793,24.47c61.785-3.726,166.314-21.18,179.059-95.953c6.468-37.954-1.437-66.938-23.501-86.137
				c-34.228-29.794-94.876-28.725-139.814-14.471c-50.89,16.159-88.347,63.506-81.795,103.398
				c5.95,36.213,47.188,56.471,113.175,55.087L2518.248,720.854z"/>
		</g>
		<g>
			
				<linearGradient id="SVGID_00000090260664244349627860000006247935023966695298_" gradientUnits="userSpaceOnUse" x1="1101.2296" y1="1130.3834" x2="1690.209" y2="561.7139">
				<stop  offset="0" style="stop-color:#FEBBBA"/>
				<stop  offset="1" style="stop-color:#FF928E"/>
			</linearGradient>
			<path style="fill:url(#SVGID_00000090260664244349627860000006247935023966695298_);" d="M1688.208,791.316h-202.81
				c-15.511,0-28.084-12.574-28.084-28.085V559.877c0-14.632,11.234-26.812,25.819-27.993l216.082-17.489
				c17.023-1.378,31.324,12.63,30.299,29.678l-13.271,220.843C1715.351,779.746,1703.065,791.316,1688.208,791.316z"/>
			<path style="fill:#FFFFFF;" d="M1514.31,751.735c-5.446,0-10.755-2.09-14.737-5.843c-4.292-4.041-6.753-9.74-6.753-15.634V599.88
				c0-3.677,2.981-6.659,6.658-6.659s6.658,2.982,6.658,6.659v130.378c0,2.273,0.91,4.383,2.565,5.94
				c1.651,1.557,3.817,2.328,6.079,2.208l154.504-9.198c4.304-0.26,7.679-3.84,7.679-8.151V593.05c0-2.334-0.953-4.48-2.682-6.047
				c-1.73-1.57-3.97-2.318-6.288-2.074l-128.521,12.729c-4.246,0.419-6.057,3.482-6.642,4.776c-0.582,1.297-1.667,4.685,0.836,8.138
				l49.018,67.65c1.538,2.123,3.924,3.352,6.544,3.375c0.023,0,0.049,0,0.072,0c2.591,0,4.968-1.187,6.525-3.264l53.995-71.938
				c2.204-2.936,6.379-3.54,9.321-1.33c2.942,2.208,3.537,6.382,1.33,9.321l-53.995,71.941c-4.142,5.514-10.339,8.739-17.358,8.586
				c-6.896-0.059-13.17-3.294-17.215-8.876l-49.018-67.649c-4.571-6.304-5.394-14.309-2.201-21.412
				c3.192-7.104,9.727-11.802,17.475-12.569l128.521-12.728c6.034-0.585,12.055,1.392,16.542,5.456
				c4.486,4.064,7.058,9.864,7.058,15.918v128.007c0,11.346-8.872,20.765-20.203,21.441l-154.501,9.197
				C1515.155,751.721,1514.729,751.735,1514.31,751.735z"/>
		</g>
		<g>
			
				<linearGradient id="SVGID_00000134228239831939679660000000368002288665889678_" gradientUnits="userSpaceOnUse" x1="783.7053" y1="1584.8972" x2="1073.1171" y2="1026.384">
				<stop  offset="0" style="stop-color:#FEBBBA"/>
				<stop  offset="1" style="stop-color:#FF928E"/>
			</linearGradient>
			<path style="fill:url(#SVGID_00000134228239831939679660000000368002288665889678_);" d="M1135.968,1306.115l-226.944,12.882
				c-18.998,1.078-35.344-13.292-36.709-32.272l-18.93-263.271c-1.45-20.165,14.518-37.322,34.735-37.322h245.874
				c19.233,0,34.825,15.591,34.825,34.824v250.389C1168.819,1289.812,1154.405,1305.068,1135.968,1306.115z"/>
			<g>
				<path style="fill:#FFFFFF;" d="M1011.059,1288.359c-11.732,0-22.362-5.991-28.438-16.026
					c-33.512-55.367-73.464-128.316-73.464-161.426c0-51.877,45.713-94.08,101.899-94.08c56.186,0,101.899,42.203,101.899,94.08
					c0,33.11-39.952,106.059-73.464,161.426C1033.419,1282.368,1022.788,1288.359,1011.059,1288.359z M1011.056,1031.28
					c-48.218,0-87.447,35.721-87.447,79.628c0,22.895,26.015,79.003,71.375,153.938c3.437,5.674,9.445,9.061,16.075,9.061
					c6.626,0,12.635-3.387,16.068-9.057c45.361-74.939,71.375-131.047,71.375-153.942
					C1098.503,1067,1059.275,1031.28,1011.056,1031.28z"/>
				<path style="fill:#FFFFFF;" d="M1003.219,1176.824c-34.994,0-63.464-28.47-63.464-63.464c0-3.99,3.235-7.226,7.226-7.226
					c3.99,0,7.226,3.236,7.226,7.226c0,27.027,21.985,49.012,49.012,49.012c27.027,0,49.012-21.985,49.012-49.012
					c0-27.027-21.985-49.012-49.012-49.012c-15.627,0-29.956,7.194-39.313,19.738c-2.382,3.2-6.912,3.863-10.112,1.475
					c-3.2-2.389-3.86-6.916-1.475-10.113c11.936-16.001,30.961-25.552,50.9-25.552c34.994,0,63.465,28.47,63.465,63.464
					C1066.684,1148.354,1038.214,1176.824,1003.219,1176.824z"/>
			</g>
		</g>
		<g>
			
				<linearGradient id="SVGID_00000050637822665585898310000005729419106291134133_" gradientUnits="userSpaceOnUse" x1="2861.6289" y1="1278.4126" x2="3120.5762" y2="973.7684">
				<stop  offset="0" style="stop-color:#FEBBBA"/>
				<stop  offset="1" style="stop-color:#FF928E"/>
			</linearGradient>
			<path style="fill:url(#SVGID_00000050637822665585898310000005729419106291134133_);" d="M2902.998,925.383v199.354
				c0,23.686,18.612,43.193,42.271,44.304l249.297,11.714c25.285,1.188,46.434-18.992,46.434-44.304V925.383
				c0-24.495-19.857-44.352-44.353-44.352h-249.297C2922.856,881.031,2902.998,900.888,2902.998,925.383z"/>
			<g>
				<g>
					<path style="fill:#FFFFFF;" d="M3082.868,1129.824c-43.372,0-103.232-80.869-113.09-107.983
						c-5.233-14.387,0.291-30.401,15.974-46.312c0.81-0.828,1.93-1.322,3.117-1.235c1.19,0.053,2.288,0.597,3.031,1.493
						l32.129,38.613c0.757,0.912,1.091,2.106,0.912,3.278c-0.178,1.172-0.846,2.212-1.838,2.858
						c-2.469,1.615-4.516,3.076-6.086,4.347c0.261,2.764,6.228,12.473,22.053,28.607c14.417,14.697,26.036,23.608,28.555,24.147
						c1.924,0.421,5.283-1.567,9.005-5.294l2.255-2.255l2.542,2.117l39.306,35.073c1.679,1.496,1.901,4.056,0.502,5.825
						c-7.544,9.493-19.388,15.068-35.206,16.575C3084.987,1129.776,3083.929,1129.824,3082.868,1129.824z M2988.574,982.375
						c-8.922,9.659-17.458,23.334-12.436,37.152c10.958,30.134,71.464,107.057,109.249,103.409
						c12.84-1.223,22.582-5.341,29.001-12.246l-35.233-31.438c-4.807,4.197-9.051,5.84-12.949,5.003
						c-9.2-1.97-52.01-42.563-55.666-57.388c-0.962-3.901,0.665-5.96,1.719-6.84c1.289-1.073,2.866-2.255,4.708-3.529
						L2988.574,982.375z M2990.581,980.274c-0.003,0.003-0.01,0.007-0.013,0.012
						C2990.571,980.281,2990.577,980.277,2990.581,980.274z"/>
				</g>
				<g>
					<g>
						<path style="fill:#FFFFFF;" d="M3065.075,1001.703c20.829,1.407,36.629,19.496,35.222,40.325
							c-0.087,1.291-0.243,2.56-0.46,3.807c-0.292,1.678,1.034,3.19,2.732,3.053l5.553-0.45c1.212-0.098,2.179-1.032,2.351-2.236
							c0.162-1.141,0.287-2.295,0.365-3.463c1.8-26.64-18.412-49.779-45.051-51.578c-2.018-0.137-4.015-0.14-5.984-0.026
							c-1.474,0.085-2.587,1.372-2.439,2.841l0.548,5.405c0.139,1.367,1.324,2.379,2.696,2.302
							C3062.079,1001.601,3063.569,1001.601,3065.075,1001.703z"/>
						<path style="fill:#FFFFFF;" d="M3066.915,974.471c35.845,2.421,63.036,33.55,60.615,69.395c0,0.01-0.001,0.021-0.002,0.031
							c-0.107,1.568,1.179,2.875,2.746,2.748l5.447-0.441c0.908-0.917,1.492-1.508,2.4-2.425
							c2.358-41.318-29.105-77.053-70.494-79.849c-3.613-0.244-7.18-0.215-10.691,0.049c-1.428,0.108-2.471,1.4-2.327,2.825
							l0.547,5.391c0.139,1.372,1.336,2.408,2.711,2.308C3060.839,974.285,3063.858,974.264,3066.915,974.471z"/>
						<path style="fill:#FFFFFF;" d="M3068.754,947.239c49.536,3.346,87.407,45.341,86.169,94.516
							c-0.039,1.544,1.238,2.793,2.777,2.669l5.405-0.437c1.312-0.106,2.353-1.187,2.379-2.503
							c1.093-54.565-41-101.07-96.019-104.786c-5.168-0.349-10.268-0.286-15.282,0.125c-1.429,0.117-2.473,1.409-2.329,2.836
							l0.546,5.384c0.143,1.404,1.385,2.41,2.792,2.296C3059.643,946.98,3064.169,946.929,3068.754,947.239z"/>
					</g>
				</g>
			</g>
		</g>
		<g>
			<g>
				
					<rect x="1068.021" y="2780.67" transform="matrix(-1 -1.224647e-16 1.224647e-16 -1 2171.1836 5941.3667)" style="fill:#91B3FA;" width="35.141" height="380.027"/>
				<path style="fill:#91B3FA;" d="M931.7,3168.024h307.783v-21.028c0-1.02-0.827-1.847-1.847-1.847H933.691
					c-1.1,0-1.991,0.891-1.991,1.991V3168.024z"/>
				<path style="fill:#91B3FA;" d="M873.497,2766.652c0,22.089,18.073,40.162,40.162,40.162h330.94
					c22.089,0,40.163-18.073,40.163-40.162v-36.315c0-22.089-18.073-40.162-40.163-40.162h-330.94
					c-22.089,0-40.162,18.073-40.162,40.162V2766.652z"/>
			</g>
			<g>
				
					<linearGradient id="SVGID_00000044140511072704082160000015263572721004955554_" gradientUnits="userSpaceOnUse" x1="6826.1099" y1="3020.4692" x2="6764.0762" y2="3142.469" gradientTransform="matrix(1 0 0 1 -5459.2607 0)">
					<stop  offset="0" style="stop-color:#09005D"/>
					<stop  offset="1" style="stop-color:#1A0F91"/>
				</linearGradient>
				<path style="fill:url(#SVGID_00000044140511072704082160000015263572721004955554_);" d="M1281.32,3093.373
					c0,0,100.346,72.329,82.923,120.922c0,0-109.792-47.371-123.057-84.685s2.244-53.795,2.244-53.795L1281.32,3093.373z"/>
				
					<linearGradient id="SVGID_00000069359663146752705720000015502316051271998592_" gradientUnits="userSpaceOnUse" x1="6708.1484" y1="3069.0198" x2="6769.9453" y2="3069.0198" gradientTransform="matrix(1 0 0 1 -5459.2607 0)">
					<stop  offset="0" style="stop-color:#FEBBBA"/>
					<stop  offset="1" style="stop-color:#FF928E"/>
				</linearGradient>
				<path style="fill:url(#SVGID_00000069359663146752705720000015502316051271998592_);" d="M1266.241,3032.755l-16.408,47.434
					c-2.476,7.158,0,15.309,6.403,19.355c3.206,2.026,7.589,3.899,13.578,5.258c8.453,1.916,17.178-1.988,21.243-9.643
					l19.627-36.959L1266.241,3032.755z"/>
				
					<linearGradient id="SVGID_00000093876778535310139090000003635715707359453064_" gradientUnits="userSpaceOnUse" x1="1340.7611" y1="3184.2178" x2="1207.6139" y2="2570.3845">
					<stop  offset="0" style="stop-color:#4F52FF"/>
					<stop  offset="1" style="stop-color:#4042E2"/>
				</linearGradient>
				<path style="fill:url(#SVGID_00000093876778535310139090000003635715707359453064_);" d="M1106.564,2605.804
					c0,0,206.108,35.721,294.52,117.395c88.413,81.674-81.15,342.202-81.15,342.202s-27.781-0.171-61.448-29.028
					c0,0,100.538-195.94,13.892-253.081c-97.411-64.24-209.671-78.708-209.671-78.708l41.864-92.483L1106.564,2605.804z"/>
				
					<linearGradient id="SVGID_00000034076588403610266560000015461965141608222372_" gradientUnits="userSpaceOnUse" x1="6790.1099" y1="3143.8193" x2="6575.0591" y2="3425.0386" gradientTransform="matrix(1 0 0 1 -5459.2607 0)">
					<stop  offset="0" style="stop-color:#09005D"/>
					<stop  offset="1" style="stop-color:#1A0F91"/>
				</linearGradient>
				<path style="fill:url(#SVGID_00000034076588403610266560000015461965141608222372_);" d="M1346.807,3187.42
					c-22.071-10.218-84.555-53.95-95.088-55.881c-10.533-1.93-28.802,10.448-28.802,10.448s-4.443,7.992,0.309,21.932
					c14.667,17.746,47.23,51.574,91.007,64.18c32.202,9.273,54.725,0.629,68.754-9.487
					C1375.27,3206.858,1361.506,3194.225,1346.807,3187.42z"/>
				
					<linearGradient id="SVGID_00000018195039129861790910000007924464423846700445_" gradientUnits="userSpaceOnUse" x1="6682.4868" y1="3204.7253" x2="6848.6563" y2="3204.7253" gradientTransform="matrix(1 0 0 1 -5459.2607 0)">
					<stop  offset="0" style="stop-color:#4F52FF"/>
					<stop  offset="1" style="stop-color:#4042E2"/>
				</linearGradient>
				<path style="fill:url(#SVGID_00000018195039129861790910000007924464423846700445_);" d="M1314.234,3228.099
					c-43.777-12.606-76.341-46.434-91.007-64.18c3.213,9.419,10.618,21.551,26.445,35.778
					c39.25,35.277,114.213,47.993,130.174,45.543c12.79-1.964,11.585-13.77,3.142-26.627
					C1368.959,3228.728,1346.436,3237.372,1314.234,3228.099z"/>
				
					<linearGradient id="SVGID_00000047742140885554350440000014605303434723565712_" gradientUnits="userSpaceOnUse" x1="6663.4619" y1="3126.0488" x2="6721.4595" y2="3126.0488" gradientTransform="matrix(1 0 0 1 -5459.2607 0)">
					<stop  offset="0" style="stop-color:#FEBBBA"/>
					<stop  offset="1" style="stop-color:#FF928E"/>
				</linearGradient>
				<path style="fill:url(#SVGID_00000047742140885554350440000014605303434723565712_);" d="M1204.201,3111.115
					c0.248,6.081,12.676,26.935,19.94,38.635c3.452,5.56,9.5,8.957,16.044,8.975c4.151,0.011,8.922-0.35,13.256-1.594
					c6.505-1.868,10.157-8.797,8.255-15.292l-14.194-48.466L1204.201,3111.115z"/>
				
					<linearGradient id="SVGID_00000062164284681756879930000008442717782726180789_" gradientUnits="userSpaceOnUse" x1="1153.5972" y1="3224.8162" x2="1020.4502" y2="2610.9841">
					<stop  offset="0" style="stop-color:#4F52FF"/>
					<stop  offset="1" style="stop-color:#4042E2"/>
				</linearGradient>
				<path style="fill:url(#SVGID_00000062164284681756879930000008442717782726180789_);" d="M908.166,2543.937
					c0,0-45.773,122.394,0,159.614c45.773,37.22,154.968,79.125,179.361,153.26c24.393,74.135,65.788,218.212,121.184,269.238
					c0,0,38.922-3.771,53.488-19.279c0,0-31.55-215.086-52.358-270.274c-18.02-47.793-44.57-116.778-95.45-155.335
					c-14.565-11.038-12.028-28.521-5.275-45.501l12.297-30.923L908.166,2543.937z"/>
				
					<linearGradient id="SVGID_00000129180220735775906510000007713833191801515188_" gradientUnits="userSpaceOnUse" x1="718.7873" y1="2899.8296" x2="1378.8821" y2="2402.2192">
					<stop  offset="0" style="stop-color:#FF928E"/>
					<stop  offset="1" style="stop-color:#FE7062"/>
				</linearGradient>
				<path style="fill:url(#SVGID_00000129180220735775906510000007713833191801515188_);" d="M1385.554,2448.008
					c-76.749,4.627-52.834-117.986-51.45-122.863l-116.485,82.276c0,0,6.167,65.571,103.014,99.966
					c24.503,8.701,46.897,9.086,66.696,4.83C1378.886,2487.596,1380.603,2465.502,1385.554,2448.008z"/>
				
					<linearGradient id="SVGID_00000078763300590422086850000009533899564177962910_" gradientUnits="userSpaceOnUse" x1="6840.6792" y1="2457.2397" x2="7042.9951" y2="2457.2397" gradientTransform="matrix(1 0 0 1 -5459.2607 0)">
					<stop  offset="0" style="stop-color:#FEBBBA"/>
					<stop  offset="1" style="stop-color:#FF928E"/>
				</linearGradient>
				<path style="fill:url(#SVGID_00000078763300590422086850000009533899564177962910_);" d="M1533.955,2411.104
					c-28.6-19.894-61,0-61,0c-38.24,25.009-66.531,35.646-87.401,36.904c-4.951,17.494-6.668,39.588,1.775,64.209
					c42.839-9.208,73.487-40.212,86.805-56.12c4.794-5.727,13.285-6.722,19.147-2.095c5.956,4.701,11.739,11.141,10.69,17.918
					c-2.068,13.365,13.44,17.613,14.61,12.767c1.169-4.847-5.305-33.581-5.305-33.581s31.017,31.191,43.125,43.175
					c12.108,11.986,27.334,0,27.334,0S1562.554,2430.998,1533.955,2411.104z"/>
				
					<linearGradient id="SVGID_00000024701100887354818390000011269082892702747796_" gradientUnits="userSpaceOnUse" x1="593.1483" y1="2733.166" x2="1253.2445" y2="2235.5544">
					<stop  offset="0" style="stop-color:#FF928E"/>
					<stop  offset="1" style="stop-color:#FE7062"/>
				</linearGradient>
				<path style="fill:url(#SVGID_00000024701100887354818390000011269082892702747796_);" d="M1027.687,2135.789
					c0,0,111.656-44.706,319.45,126.846c0,0,17.357,35.927-1.578,67.904c-18.935,31.978-199.349,187.79-224.146,274.198
					c0,0-107.483,34.925-218.639-47.893C902.774,2556.844,912.583,2316.362,1027.687,2135.789z"/>
				
					<linearGradient id="SVGID_00000128455728073938824320000009233393802771890825_" gradientUnits="userSpaceOnUse" x1="6647.6396" y1="2158.6589" x2="6781.8745" y2="2158.6589" gradientTransform="matrix(1 0 0 1 -5459.2607 0)">
					<stop  offset="0" style="stop-color:#FEBBBA"/>
					<stop  offset="1" style="stop-color:#FF928E"/>
				</linearGradient>
				<path style="fill:url(#SVGID_00000128455728073938824320000009233393802771890825_);" d="M1248.418,2095.893l-54.965,66.634
					c-5.457,6.615-6.66,15.819-2.885,23.52c7.629,15.563,25.731,38.219,65.878,35.087c11.943-0.932,22.519-8.138,27.735-18.922
					l38.433-79.449L1248.418,2095.893z"/>
				
					<linearGradient id="SVGID_00000072255367481104788520000002657040240609989522_" gradientUnits="userSpaceOnUse" x1="525.3923" y1="2643.2856" x2="1185.4866" y2="2145.6755">
					<stop  offset="0" style="stop-color:#FF928E"/>
					<stop  offset="1" style="stop-color:#FE7062"/>
				</linearGradient>
				<path style="fill:url(#SVGID_00000072255367481104788520000002657040240609989522_);" d="M941.242,2421.17
					c-12.962-52.789,118.33-170.478,118.33-170.478l-31.885-114.903c0,0-283.503,188.731-211.256,340.503
					c10.357,21.757,24.113,36.998,40.062,47.19C879.321,2462.032,915.701,2433.851,941.242,2421.17z"/>
				
					<linearGradient id="SVGID_00000101807893840151500640000014636756255561356419_" gradientUnits="userSpaceOnUse" x1="2477.575" y1="1680.2507" x2="1358.7826" y2="2168.6577">
					<stop  offset="0" style="stop-color:#E1473D"/>
					<stop  offset="1" style="stop-color:#E9605A"/>
				</linearGradient>
				<path style="fill:url(#SVGID_00000101807893840151500640000014636756255561356419_);" d="M941.149,2413.484
					c-1.393,0-2.661-0.945-3.009-2.363c-13.255-53.973,113.858-168.667,119.274-173.525c1.272-1.139,3.231-1.038,4.382,0.238
					c1.143,1.276,1.034,3.239-0.238,4.382c-1.3,1.163-129.766,117.04-117.392,167.427c0.408,1.664-0.61,3.344-2.274,3.751
					C941.646,2413.456,941.395,2413.484,941.149,2413.484z"/>
				
					<linearGradient id="SVGID_00000144329814825281960350000008576941452881062530_" gradientUnits="userSpaceOnUse" x1="919.1871" y1="2655.1746" x2="1275.7518" y2="2289.5823">
					<stop  offset="0" style="stop-color:#FEBBBA"/>
					<stop  offset="1" style="stop-color:#FF928E"/>
				</linearGradient>
				<path style="fill:url(#SVGID_00000144329814825281960350000008576941452881062530_);" d="M1140.101,2416.626
					c0,0-155.664,60.436-193.66,14.978c-2.577-3.084-4.257-6.594-5.199-10.434c-25.541,12.681-61.921,40.862-84.749,102.311
					c81.87,52.315,221.809-29.104,259.648-53.106c6.224-3.949,13.691-5.333,20.909-3.837c14.594,3.027,39.806,7.476,53.403,5.382
					c19.892-3.064,48.464,67.103,80.705,45.46C1271.157,2517.381,1243.549,2395.415,1140.101,2416.626z"/>
				<g>
					
						<linearGradient id="SVGID_00000104694871378382249440000018436761868803155115_" gradientUnits="userSpaceOnUse" x1="6892.5918" y1="1971.9609" x2="6724.7832" y2="2193.958" gradientTransform="matrix(0.9683 -0.2499 0.2499 0.9683 -5830.5137 1820.1976)">
						<stop  offset="0" style="stop-color:#FEBBBA"/>
						<stop  offset="1" style="stop-color:#FF928E"/>
					</linearGradient>
					<path style="fill:url(#SVGID_00000104694871378382249440000018436761868803155115_);" d="M1368.018,1998.018
						c0.553,2.142-12.884,147.802-12.884,147.802l-83.007-9.44l-7.775-139.948
						C1264.352,1996.432,1358.761,1962.154,1368.018,1998.018z"/>
					
						<linearGradient id="SVGID_00000050622745059470248060000005306523511774602686_" gradientUnits="userSpaceOnUse" x1="6764.4316" y1="2025.5125" x2="6964.8804" y2="2025.5125" gradientTransform="matrix(0.9683 -0.2499 0.2499 0.9683 -5830.5137 1820.1976)">
						<stop  offset="0" style="stop-color:#09005D"/>
						<stop  offset="1" style="stop-color:#1A0F91"/>
					</linearGradient>
					<path style="fill:url(#SVGID_00000050622745059470248060000005306523511774602686_);" d="M1285.971,2025.434l-1.676,73.992
						c-0.021,0.949,0.081,1.873,0.317,2.792c1.444,5.627,7.833,24.622,26.868,16.901c17.273-7.006,33.14-13.143,44.809-10.929
						c5.239,0.994,8.861,5.793,8.37,11.103c-1.224,13.234-4.535,43.004-11.357,68.43c-1.384,5.159-6.518,8.353-11.779,7.426
						c-15.853-2.793-49.122-9.617-74.601-21.378c-3.453-1.594-5.768-4.904-6.023-8.698c-1.244-18.496-5.233-74.698-8.767-90.187
						c-3.317-14.538-22.357-21.376-30.556-23.677c-2.688-0.754-4.928-2.561-6.24-5.026c-4.636-8.712-11.962-29.246,13.659-40.802
						c5.363-2.419,7.636-8.736,5.055-14.022c-5.137-10.524-8.632-27.062,10.912-38.529c19.865-11.656,36.691-2.231,46.109,5.896
						c3.808,3.286,9.336,3.244,13.27,0.109c2.239-1.784,5.285-2.624,9.286-0.701c5.392,2.59,11.84-0.286,13.858-5.917
						c3.877-10.819,12.866-22.938,33.704-21.68c36.977,2.233,45.502,42.001,38.514,66.62c-6.988,24.619-46.94,19.92-67.792,10.183
						c-15.854-7.403-34.095,4.182-41.928,10.16C1287.501,2019.392,1286.042,2022.314,1285.971,2025.434z"/>
					
						<linearGradient id="SVGID_00000013182799119578503450000016270906367817168315_" gradientUnits="userSpaceOnUse" x1="6646.8198" y1="2147.7666" x2="6781.4146" y2="2009.6763" gradientTransform="matrix(0.9683 -0.2499 0.2499 0.9683 -5830.5137 1820.1976)">
						<stop  offset="0" style="stop-color:#FEBBBA"/>
						<stop  offset="1" style="stop-color:#FF928E"/>
					</linearGradient>
					<path style="fill:url(#SVGID_00000013182799119578503450000016270906367817168315_);" d="M1251.79,2101.832
						c0,0,10.335-43.42-6.118-51.97c-16.453-8.55-38.574-0.746-30.253,28.974C1225.769,2115.804,1251.79,2101.832,1251.79,2101.832z
						"/>
				</g>
			</g>
			<g>
				
					<linearGradient id="SVGID_00000139273299703640156970000010220024400340342693_" gradientUnits="userSpaceOnUse" x1="6960.8936" y1="2851.3494" x2="6697.7476" y2="2923.4709" gradientTransform="matrix(-0.9988 -0.0494 -0.0494 0.9988 8257.835 -55.0328)">
					<stop  offset="0" style="stop-color:#09005D"/>
					<stop  offset="1" style="stop-color:#1A0F91"/>
				</linearGradient>
				<path style="fill:url(#SVGID_00000139273299703640156970000010220024400340342693_);" d="M1219.849,2535.805
					c0.25,0.012,0.5,0.019,0.751,0.017l326.604-0.356c8.074-0.007,14.611-6.559,14.603-14.633
					c-0.008-8.077-6.584-14.749-14.636-14.603l-326.604,0.356c-8.074,0.007-14.612,6.559-14.603,14.633
					C1205.974,2529.041,1212.125,2535.423,1219.849,2535.805z"/>
				
					<linearGradient id="SVGID_00000108995610009506767920000004523800417317199014_" gradientUnits="userSpaceOnUse" x1="6695.7725" y1="2279.032" x2="6509.0581" y2="2476.3774" gradientTransform="matrix(-1 0 0 1 8216.3662 0)">
					<stop  offset="0" style="stop-color:#09005D"/>
					<stop  offset="1" style="stop-color:#1A0F91"/>
				</linearGradient>
				<path style="fill:url(#SVGID_00000108995610009506767920000004523800417317199014_);" d="M1840.807,2239.269h-271.998
					c-20.065,0-38.329,11.579-46.887,29.728l-125.745,266.634h338.021c12.931,0,24.548-7.901,29.301-19.926l97.51-246.73
					C1866.642,2254.718,1856.136,2239.269,1840.807,2239.269z"/>
				<path style="fill:#91B3FA;" d="M1649.182,2375.98c-5.894,18.313-1.54,36.097,9.726,39.723
					c11.266,3.626,25.177-8.28,31.071-26.592c5.894-18.313,1.54-36.097-9.726-39.724
					C1668.987,2345.762,1655.076,2357.667,1649.182,2375.98z"/>
			</g>
			<g>
				<g>
					<path style="fill:#91B3FA;" d="M1796.71,3236.308c1.809,0,3.648-0.351,5.417-1.086c6.963-2.9,10.18-10.716,7.184-17.456
						l-287.842-647.813c-2.993-6.739-11.062-9.85-18.031-6.955c-6.963,2.9-10.18,10.715-7.184,17.456l287.842,647.813
						C1786.33,3233.296,1791.392,3236.308,1796.71,3236.308z"/>
					<path style="fill:#91B3FA;" d="M1472.444,3236.308c5.319,0,10.381-3.01,12.615-8.041l287.841-647.813
						c2.996-6.741-0.221-14.556-7.184-17.456c-6.958-2.9-15.034,0.212-18.031,6.955l-287.842,647.813
						c-2.995,6.74,0.221,14.556,7.184,17.456C1468.794,3235.958,1470.635,3236.308,1472.444,3236.308z"/>
					<path style="fill:#91B3FA;" d="M905.716,3236.308c1.81,0,3.648-0.351,5.417-1.086c6.963-2.9,10.179-10.716,7.184-17.456
						l-287.842-647.813c-2.996-6.739-11.059-9.85-18.031-6.955c-6.963,2.9-10.179,10.715-7.184,17.456l287.841,647.813
						C895.336,3233.296,900.398,3236.308,905.716,3236.308z"/>
					<path style="fill:#91B3FA;" d="M581.453,3236.308c5.319,0,10.38-3.01,12.614-8.041l287.842-647.813
						c2.995-6.741-0.221-14.556-7.184-17.456c-6.958-2.9-15.034,0.212-18.032,6.955l-287.841,647.813
						c-2.995,6.74,0.221,14.556,7.184,17.456C577.803,3235.958,579.643,3236.308,581.453,3236.308z"/>
				</g>
				<path style="fill:#91B3FA;" d="M547.691,2549.954c-0.734-4.249,0.265-8.643,2.726-11.981c2.46-3.338,6.123-5.272,9.989-5.272
					h1309.47c5.084,0,9.817,2.901,12.555,7.696c2.739,4.795,3.106,10.822,0.974,15.988l-14.19,34.384
					c-3.249,7.874-10.29,12.916-18.038,12.916H569.39c-7.207,0-13.401-5.721-14.77-13.644L547.691,2549.954z"/>
			</g>
		</g>
	</g>
</g>
</svg>